<svg width="969" height="705" viewBox="0 0 969 705" fill="none" xmlns="http://www.w3.org/2000/svg">
<path d="M484.156 308.841L484.156 286.841L506.156 286.841L506.156 308.841L484.156 308.841Z" fill="#EEEEEE"/>
<path d="M484.156 22.841L506.156 22.841L506.156 0.840963L484.156 0.840961L484.156 22.841Z" fill="#EEEEEE"/>
<path d="M528.156 22.841L528.156 0.840965L506.156 0.840963L506.156 22.841L528.156 22.841Z" fill="#EEEEEE"/>
<path d="M528.156 44.841L506.156 44.841L506.156 66.841L528.156 66.841L528.156 44.841Z" fill="#EEEEEE"/>
<path d="M506.156 22.841L506.156 44.841L528.156 44.841L528.156 22.841L506.156 22.841Z" fill="#EEEEEE"/>
<path d="M484.156 88.841L484.156 110.841L506.156 110.841L506.156 88.841L484.156 88.841Z" fill="#EEEEEE"/>
<path d="M528.156 110.841L528.156 88.841L506.156 88.841L506.156 110.841L528.156 110.841Z" fill="#EEEEEE"/>
<path d="M528.156 110.841L550.156 110.841L550.156 88.841L528.156 88.841L528.156 110.841Z" fill="#EEEEEE"/>
<path d="M572.156 110.841L572.156 88.841L550.156 88.841L550.156 110.841L572.156 110.841Z" fill="#EEEEEE"/>
<path d="M572.156 88.841L572.156 66.841L550.156 66.841L550.156 88.841L572.156 88.841Z" fill="#EEEEEE"/>
<path d="M572.156 22.841L572.156 0.840969L550.156 0.840967L550.156 22.841L572.156 22.841Z" fill="#EEEEEE"/>
<path d="M572.156 44.841L572.156 22.841L550.156 22.841L550.156 44.841L572.156 44.841Z" fill="#EEEEEE"/>
<path d="M594.156 22.841L572.156 22.841L572.156 44.841L594.156 44.841L594.156 22.841Z" fill="#EEEEEE"/>
<path d="M616.156 44.841L616.156 22.841L594.156 22.841L594.156 44.841L616.156 44.841Z" fill="#EEEEEE"/>
<path d="M616.156 66.841L616.156 44.841L594.156 44.841L594.156 66.841L616.156 66.841Z" fill="#EEEEEE"/>
<path d="M506.156 132.841L484.156 132.841L484.156 154.841L506.156 154.841L506.156 132.841Z" fill="#EEEEEE"/>
<path d="M528.156 132.841L506.156 132.841L506.156 154.841L528.156 154.841L528.156 132.841Z" fill="#EEEEEE"/>
<path d="M572.156 132.841L550.156 132.841L550.156 154.841L572.156 154.841L572.156 132.841Z" fill="#EEEEEE"/>
<path d="M550.156 176.841L572.156 176.841L572.156 154.841L550.156 154.841L550.156 176.841Z" fill="#EEEEEE"/>
<path d="M572.156 198.841L572.156 176.841L550.156 176.841L550.156 198.841L572.156 198.841Z" fill="#EEEEEE"/>
<path d="M550.156 220.841L550.156 198.841L528.156 198.841L528.156 220.841L550.156 220.841Z" fill="#EEEEEE"/>
<path d="M484.156 198.841L484.156 220.841L506.156 220.841L506.156 198.841L484.156 198.841Z" fill="#EEEEEE"/>
<path d="M506.156 220.841L528.156 220.841L528.156 198.841L506.156 198.841L506.156 220.841Z" fill="#EEEEEE"/>
<path d="M594.156 132.841L572.156 132.841L572.156 154.841L594.156 154.841L594.156 132.841Z" fill="#EEEEEE"/>
<path d="M616.156 242.841L616.156 220.841L594.156 220.841L594.156 242.841L616.156 242.841Z" fill="#EEEEEE"/>
<path d="M572.156 264.841L572.156 242.841L550.156 242.841L550.156 264.841L572.156 264.841Z" fill="#EEEEEE"/>
<path d="M594.156 242.841L572.156 242.841L572.156 264.841L594.156 264.841L594.156 242.841Z" fill="#EEEEEE"/>
<path d="M616.156 220.841L616.156 198.841L594.156 198.841L594.156 220.841L616.156 220.841Z" fill="#EEEEEE"/>
<path d="M484.156 286.841L506.156 286.841L506.156 264.841L484.156 264.841L484.156 286.841Z" fill="#EEEEEE"/>
<path d="M484.156 242.841L484.156 264.841L506.156 264.841L506.156 242.841L484.156 242.841Z" fill="#EEEEEE"/>
<path d="M550.156 264.841L550.156 242.841L528.156 242.841L528.156 264.841L550.156 264.841Z" fill="#EEEEEE"/>
<path d="M528.156 308.841L550.156 308.841L550.156 286.841L528.156 286.841L528.156 308.841Z" fill="#EEEEEE"/>
<path d="M528.156 330.841L550.156 330.841L550.156 308.841L528.156 308.841L528.156 330.841Z" fill="#EEEEEE"/>
<path d="M528.156 352.841L550.156 352.841L550.156 330.841L528.156 330.841L528.156 352.841Z" fill="#EEEEEE"/>
<path d="M506.156 352.841L528.156 352.841L528.156 330.841L506.156 330.841L506.156 352.841Z" fill="#EEEEEE"/>
<path d="M484.156 352.841L506.156 352.841L506.156 330.841L484.156 330.841L484.156 352.841Z" fill="#EEEEEE"/>
<path d="M572.156 308.841L572.156 286.841L550.156 286.841L550.156 308.841L572.156 308.841Z" fill="#EEEEEE"/>
<path d="M594.156 286.841L572.156 286.841L572.156 308.841L594.156 308.841L594.156 286.841Z" fill="#EEEEEE"/>
<path d="M572.156 352.841L594.156 352.841L594.156 330.841L572.156 330.841L572.156 352.841Z" fill="#EEEEEE"/>
<path d="M594.156 352.841L616.156 352.841L616.156 330.841L594.156 330.841L594.156 352.841Z" fill="#EEEEEE"/>
<path d="M616.156 352.841L638.156 352.841L638.156 330.841L616.156 330.841L616.156 352.841Z" fill="#EEEEEE"/>
<path d="M638.156 308.841L616.156 308.841L616.156 330.841L638.156 330.841L638.156 308.841Z" fill="#EEEEEE"/>
<path d="M660.156 22.841L660.156 0.840976L638.156 0.840975L638.156 22.841L660.156 22.841Z" fill="#EEEEEE"/>
<path d="M660.156 22.841L638.156 22.841L638.156 44.841L660.156 44.841L660.156 22.841Z" fill="#EEEEEE"/>
<path d="M660.156 88.841L660.156 66.841L638.156 66.841L638.156 88.841L660.156 88.841Z" fill="#EEEEEE"/>
<path d="M660.156 44.841L638.156 44.841L638.156 66.841L660.156 66.841L660.156 44.841Z" fill="#EEEEEE"/>
<path d="M660.156 88.841L638.156 88.841L638.156 110.841L660.156 110.841L660.156 88.841Z" fill="#EEEEEE"/>
<path d="M638.156 88.841L616.156 88.841L616.156 110.841L638.156 110.841L638.156 88.841Z" fill="#EEEEEE"/>
<path d="M616.156 110.841L616.156 88.841L594.156 88.841L594.156 110.841L616.156 110.841Z" fill="#EEEEEE"/>
<path d="M616.156 198.841L638.156 198.841L638.156 176.841L616.156 176.841L616.156 198.841Z" fill="#EEEEEE"/>
<path d="M616.156 198.841L616.156 176.841L594.156 176.841L594.156 198.841L616.156 198.841Z" fill="#EEEEEE"/>
<path d="M682.156 110.841L704.156 110.841L704.156 88.841L682.156 88.841L682.156 110.841Z" fill="#EEEEEE"/>
<path d="M726.156 66.841L726.156 44.841L704.156 44.841L704.156 66.841L726.156 66.841Z" fill="#EEEEEE"/>
<path d="M726.156 22.841L704.156 22.841L704.156 44.841L726.156 44.841L726.156 22.841Z" fill="#EEEEEE"/>
<path d="M726.156 0.840982L704.156 0.84098L704.156 22.841L726.156 22.841L726.156 0.840982Z" fill="#EEEEEE"/>
<path d="M704.156 0.84098L682.156 0.840978L682.156 22.841L704.156 22.841L704.156 0.84098Z" fill="#EEEEEE"/>
<path d="M770.156 0.840986L748.156 0.840984L748.156 22.841L770.156 22.841L770.156 0.840986Z" fill="#EEEEEE"/>
<path d="M770.156 44.841L770.156 22.841L748.156 22.841L748.156 44.841L770.156 44.841Z" fill="#EEEEEE"/>
<path d="M748.156 66.841L770.156 66.841L770.156 44.841L748.156 44.841L748.156 66.841Z" fill="#EEEEEE"/>
<path d="M858.156 22.841L858.156 0.840994L836.156 0.840992L836.156 22.841L858.156 22.841Z" fill="#EEEEEE"/>
<path d="M836.156 22.841L836.156 44.841L858.156 44.841L858.156 22.841L836.156 22.841Z" fill="#EEEEEE"/>
<path d="M814.156 22.841L814.156 44.841L836.156 44.841L836.156 22.841L814.156 22.841Z" fill="#EEEEEE"/>
<path d="M814.156 44.841L814.156 22.841L792.156 22.841L792.156 44.841L814.156 44.841Z" fill="#EEEEEE"/>
<path d="M814.156 66.841L814.156 44.841L792.156 44.841L792.156 66.841L814.156 66.841Z" fill="#EEEEEE"/>
<path d="M814.156 110.841L814.156 88.841L792.156 88.841L792.156 110.841L814.156 110.841Z" fill="#EEEEEE"/>
<path d="M770.156 132.841L792.156 132.841L792.156 110.841L770.156 110.841L770.156 132.841Z" fill="#EEEEEE"/>
<path d="M660.156 132.841L638.156 132.841L638.156 154.841L660.156 154.841L660.156 132.841Z" fill="#EEEEEE"/>
<path d="M638.156 132.841L616.156 132.841L616.156 154.841L638.156 154.841L638.156 132.841Z" fill="#EEEEEE"/>
<path d="M704.156 132.841L682.156 132.841L682.156 154.841L704.156 154.841L704.156 132.841Z" fill="#EEEEEE"/>
<path d="M704.156 176.841L682.156 176.841L682.156 198.841L704.156 198.841L704.156 176.841Z" fill="#EEEEEE"/>
<path d="M682.156 198.841L682.156 176.841L660.156 176.841L660.156 198.841L682.156 198.841Z" fill="#EEEEEE"/>
<path d="M682.156 220.841L682.156 198.841L660.156 198.841L660.156 220.841L682.156 220.841Z" fill="#EEEEEE"/>
<path d="M682.156 242.841L660.156 242.841L660.156 264.841L682.156 264.841L682.156 242.841Z" fill="#EEEEEE"/>
<path d="M682.156 308.841L682.156 286.841L660.156 286.841L660.156 308.841L682.156 308.841Z" fill="#EEEEEE"/>
<path d="M682.156 330.841L682.156 308.841L660.156 308.841L660.156 330.841L682.156 330.841Z" fill="#EEEEEE"/>
<path d="M660.156 352.841L682.156 352.841L682.156 330.841L660.156 330.841L660.156 352.841Z" fill="#EEEEEE"/>
<path d="M748.156 352.841L770.156 352.841L770.156 330.841L748.156 330.841L748.156 352.841Z" fill="#EEEEEE"/>
<path d="M726.156 352.841L748.156 352.841L748.156 330.841L726.156 330.841L726.156 352.841Z" fill="#EEEEEE"/>
<path d="M704.156 352.841L726.156 352.841L726.156 330.841L704.156 330.841L704.156 352.841Z" fill="#EEEEEE"/>
<path d="M704.156 330.841L726.156 330.841L726.156 308.841L704.156 308.841L704.156 330.841Z" fill="#EEEEEE"/>
<path d="M726.156 286.841L726.156 264.841L704.156 264.841L704.156 286.841L726.156 286.841Z" fill="#EEEEEE"/>
<path d="M726.156 286.841L748.156 286.841L748.156 264.841L726.156 264.841L726.156 286.841Z" fill="#EEEEEE"/>
<path d="M748.156 286.841L770.156 286.841L770.156 264.841L748.156 264.841L748.156 286.841Z" fill="#EEEEEE"/>
<path d="M748.156 308.841L770.156 308.841L770.156 286.841L748.156 286.841L748.156 308.841Z" fill="#EEEEEE"/>
<path d="M792.156 308.841L792.156 286.841L770.156 286.841L770.156 308.841L792.156 308.841Z" fill="#EEEEEE"/>
<path d="M814.156 308.841L814.156 286.841L792.156 286.841L792.156 308.841L814.156 308.841Z" fill="#EEEEEE"/>
<path d="M814.156 330.841L814.156 308.841L792.156 308.841L792.156 330.841L814.156 330.841Z" fill="#EEEEEE"/>
<path d="M792.156 352.841L814.156 352.841L814.156 330.841L792.156 330.841L792.156 352.841Z" fill="#EEEEEE"/>
<path d="M726.156 242.841L704.156 242.841L704.156 264.841L726.156 264.841L726.156 242.841Z" fill="#EEEEEE"/>
<path d="M726.156 220.841L704.156 220.841L704.156 242.841L726.156 242.841L726.156 220.841Z" fill="#EEEEEE"/>
<path d="M748.156 176.841L726.156 176.841L726.156 198.841L748.156 198.841L748.156 176.841Z" fill="#EEEEEE"/>
<path d="M770.156 220.841L748.156 220.841L748.156 242.841L770.156 242.841L770.156 220.841Z" fill="#EEEEEE"/>
<path d="M770.156 198.841L748.156 198.841L748.156 220.841L770.156 220.841L770.156 198.841Z" fill="#EEEEEE"/>
<path d="M770.156 198.841L770.156 176.841L748.156 176.841L748.156 198.841L770.156 198.841Z" fill="#EEEEEE"/>
<path d="M792.156 176.841L792.156 154.841L770.156 154.841L770.156 176.841L792.156 176.841Z" fill="#EEEEEE"/>
<path d="M792.156 176.841L770.156 176.841L770.156 198.841L792.156 198.841L792.156 176.841Z" fill="#EEEEEE"/>
<path d="M858.156 330.841L858.156 308.841L836.156 308.841L836.156 330.841L858.156 330.841Z" fill="#EEEEEE"/>
<path d="M858.156 330.841L880.156 330.841L880.156 308.841L858.156 308.841L858.156 330.841Z" fill="#EEEEEE"/>
<path d="M858.156 352.841L880.156 352.841L880.156 330.841L858.156 330.841L858.156 352.841Z" fill="#EEEEEE"/>
<path d="M858.156 308.841L858.156 286.841L836.156 286.841L836.156 308.841L858.156 308.841Z" fill="#EEEEEE"/>
<path d="M858.156 264.841L836.156 264.841L836.156 286.841L858.156 286.841L858.156 264.841Z" fill="#EEEEEE"/>
<path d="M924.156 286.841L902.156 286.841L902.156 308.841L924.156 308.841L924.156 286.841Z" fill="#EEEEEE"/>
<path d="M902.156 330.841L924.156 330.841L924.156 308.841L902.156 308.841L902.156 330.841Z" fill="#EEEEEE"/>
<path d="M946.156 352.841L968.156 352.841L968.156 330.841L946.156 330.841L946.156 352.841Z" fill="#EEEEEE"/>
<path d="M968.156 308.841L946.156 308.841L946.156 330.841L968.156 330.841L968.156 308.841Z" fill="#EEEEEE"/>
<path d="M968.156 308.841L968.156 286.841L946.156 286.841L946.156 308.841L968.156 308.841Z" fill="#EEEEEE"/>
<path d="M946.156 286.841L968.156 286.841L968.156 264.841L946.156 264.841L946.156 286.841Z" fill="#EEEEEE"/>
<path d="M968.156 264.841L968.156 242.841L946.156 242.841L946.156 264.841L968.156 264.841Z" fill="#EEEEEE"/>
<path d="M968.156 242.841L968.156 220.841L946.156 220.841L946.156 242.841L968.156 242.841Z" fill="#EEEEEE"/>
<path d="M858.156 176.841L858.156 154.841L836.156 154.841L836.156 176.841L858.156 176.841Z" fill="#EEEEEE"/>
<path d="M814.156 154.841L814.156 176.841L836.156 176.841L836.156 154.841L814.156 154.841Z" fill="#EEEEEE"/>
<path d="M858.156 176.841L836.156 176.841L836.156 198.841L858.156 198.841L858.156 176.841Z" fill="#EEEEEE"/>
<path d="M836.156 220.841L858.156 220.841L858.156 198.841L836.156 198.841L836.156 220.841Z" fill="#EEEEEE"/>
<path d="M814.156 242.841L836.156 242.841L836.156 220.841L814.156 220.841L814.156 242.841Z" fill="#EEEEEE"/>
<path d="M814.156 242.841L814.156 220.841L792.156 220.841L792.156 242.841L814.156 242.841Z" fill="#EEEEEE"/>
<path d="M814.156 264.841L814.156 242.841L792.156 242.841L792.156 264.841L814.156 264.841Z" fill="#EEEEEE"/>
<path d="M814.156 198.841L814.156 220.841L836.156 220.841L836.156 198.841L814.156 198.841Z" fill="#EEEEEE"/>
<path d="M880.156 264.841L880.156 242.841L858.156 242.841L858.156 264.841L880.156 264.841Z" fill="#EEEEEE"/>
<path d="M858.156 286.841L880.156 286.841L880.156 264.841L858.156 264.841L858.156 286.841Z" fill="#EEEEEE"/>
<path d="M902.156 264.841L902.156 242.841L880.156 242.841L880.156 264.841L902.156 264.841Z" fill="#EEEEEE"/>
<path d="M924.156 242.841L902.156 242.841L902.156 264.841L924.156 264.841L924.156 242.841Z" fill="#EEEEEE"/>
<path d="M924.156 264.841L902.156 264.841L902.156 286.841L924.156 286.841L924.156 264.841Z" fill="#EEEEEE"/>
<path d="M880.156 176.841L902.156 176.841L902.156 154.841L880.156 154.841L880.156 176.841Z" fill="#EEEEEE"/>
<path d="M902.156 198.841L902.156 176.841L880.156 176.841L880.156 198.841L902.156 198.841Z" fill="#EEEEEE"/>
<path d="M902.156 220.841L902.156 198.841L880.156 198.841L880.156 220.841L902.156 220.841Z" fill="#EEEEEE"/>
<path d="M902.156 66.841L902.156 44.841L880.156 44.841L880.156 66.841L902.156 66.841Z" fill="#EEEEEE"/>
<path d="M858.156 88.841L880.156 88.841L880.156 66.841L858.156 66.841L858.156 88.841Z" fill="#EEEEEE"/>
<path d="M902.156 88.841L902.156 66.841L880.156 66.841L880.156 88.841L902.156 88.841Z" fill="#EEEEEE"/>
<path d="M902.156 44.841L902.156 22.841L880.156 22.841L880.156 44.841L902.156 44.841Z" fill="#EEEEEE"/>
<path d="M858.156 88.841L858.156 66.841L836.156 66.841L836.156 88.841L858.156 88.841Z" fill="#EEEEEE"/>
<path d="M836.156 132.841L858.156 132.841L858.156 110.841L836.156 110.841L836.156 132.841Z" fill="#EEEEEE"/>
<path d="M902.156 132.841L880.156 132.841L880.156 154.841L902.156 154.841L902.156 132.841Z" fill="#EEEEEE"/>
<path d="M880.156 132.841L902.156 132.841L902.156 110.841L880.156 110.841L880.156 132.841Z" fill="#EEEEEE"/>
<path d="M946.156 22.841L946.156 0.841001L924.156 0.841L924.156 22.841L946.156 22.841Z" fill="#EEEEEE"/>
<path d="M968.156 22.841L968.156 0.841003L946.156 0.841001L946.156 22.841L968.156 22.841Z" fill="#EEEEEE"/>
<path d="M968.156 44.841L968.156 22.841L946.156 22.841L946.156 44.841L968.156 44.841Z" fill="#EEEEEE"/>
<path d="M946.156 66.841L968.156 66.841L968.156 44.841L946.156 44.841L946.156 66.841Z" fill="#EEEEEE"/>
<path d="M924.156 44.841L902.156 44.841L902.156 66.841L924.156 66.841L924.156 44.841Z" fill="#EEEEEE"/>
<path d="M946.156 110.841L946.156 88.841L924.156 88.841L924.156 110.841L946.156 110.841Z" fill="#EEEEEE"/>
<path d="M924.156 132.841L946.156 132.841L946.156 110.841L924.156 110.841L924.156 132.841Z" fill="#EEEEEE"/>
<path d="M946.156 132.841L968.156 132.841L968.156 110.841L946.156 110.841L946.156 132.841Z" fill="#EEEEEE"/>
<path d="M946.156 176.841L968.156 176.841L968.156 154.841L946.156 154.841L946.156 176.841Z" fill="#EEEEEE"/>
<path d="M924.156 176.841L946.156 176.841L946.156 154.841L924.156 154.841L924.156 176.841Z" fill="#EEEEEE"/>
<path d="M946.156 198.841L946.156 176.841L924.156 176.841L924.156 198.841L946.156 198.841Z" fill="#EEEEEE"/>
<path d="M660.156 242.841L660.156 220.841L638.156 220.841L638.156 242.841L660.156 242.841Z" fill="#EEEEEE"/>
<path d="M682.156 242.841L682.156 220.841L660.156 220.841L660.156 242.841L682.156 242.841Z" fill="#EEEEEE"/>
<path d="M594.156 242.841L594.156 220.841L572.156 220.841L572.156 242.841L594.156 242.841Z" fill="#EEEEEE"/>
<path d="M550.156 198.841L550.156 176.841L528.156 176.841L528.156 198.841L550.156 198.841Z" fill="#EEEEEE"/>
<path d="M484.156 154.841L484.156 176.841L506.156 176.841L506.156 154.841L484.156 154.841Z" fill="#EEEEEE"/>
<path d="M616.156 286.841L638.156 286.841L638.156 264.841L616.156 264.841L616.156 286.841Z" fill="#EEEEEE"/>
<path d="M726.156 132.841L704.156 132.841L704.156 154.841L726.156 154.841L726.156 132.841Z" fill="#EEEEEE"/>
<path d="M748.156 132.841L726.156 132.841L726.156 154.841L748.156 154.841L748.156 132.841Z" fill="#EEEEEE"/>
<path d="M726.156 132.841L748.156 132.841L748.156 110.841L726.156 110.841L726.156 132.841Z" fill="#EEEEEE"/>
<path d="M682.156 88.841L704.156 88.841L704.156 66.841L682.156 66.841L682.156 88.841Z" fill="#EEEEEE"/>
<path d="M682.156 66.841L704.156 66.841L704.156 44.841L682.156 44.841L682.156 66.841Z" fill="#EEEEEE"/>
<path d="M748.156 110.841L748.156 88.841L726.156 88.841L726.156 110.841L748.156 110.841Z" fill="#EEEEEE"/>
<path d="M792.156 110.841L792.156 88.841L770.156 88.841L770.156 110.841L792.156 110.841Z" fill="#EEEEEE"/>
<path d="M792.156 132.841L814.156 132.841L814.156 110.841L792.156 110.841L792.156 132.841Z" fill="#EEEEEE"/>
<path d="M484.156 44.841L484.156 66.841L462.156 66.841L462.156 44.841L484.156 44.841Z" fill="#EEEEEE"/>
<path d="M484.156 330.841L462.156 330.841L462.156 352.841L484.156 352.841L484.156 330.841Z" fill="#EEEEEE"/>
<path d="M440.156 330.841L440.156 352.841L462.156 352.841L462.156 330.841L440.156 330.841Z" fill="#EEEEEE"/>
<path d="M440.156 308.841L462.156 308.841L462.156 286.841L440.156 286.841L440.156 308.841Z" fill="#EEEEEE"/>
<path d="M462.156 330.841L462.156 308.841L440.156 308.841L440.156 330.841L462.156 330.841Z" fill="#EEEEEE"/>
<path d="M484.156 264.841L484.156 242.841L462.156 242.841L462.156 264.841L484.156 264.841Z" fill="#EEEEEE"/>
<path d="M440.156 242.841L440.156 264.841L462.156 264.841L462.156 242.841L440.156 242.841Z" fill="#EEEEEE"/>
<path d="M440.156 242.841L418.156 242.841L418.156 264.841L440.156 264.841L440.156 242.841Z" fill="#EEEEEE"/>
<path d="M396.156 242.841L396.156 264.841L418.156 264.841L418.156 242.841L396.156 242.841Z" fill="#EEEEEE"/>
<path d="M396.156 264.841L396.156 286.841L418.156 286.841L418.156 264.841L396.156 264.841Z" fill="#EEEEEE"/>
<path d="M396.156 330.841L396.156 352.841L418.156 352.841L418.156 330.841L396.156 330.841Z" fill="#EEEEEE"/>
<path d="M396.156 308.841L396.156 330.841L418.156 330.841L418.156 308.841L396.156 308.841Z" fill="#EEEEEE"/>
<path d="M374.156 330.841L396.156 330.841L396.156 308.841L374.156 308.841L374.156 330.841Z" fill="#EEEEEE"/>
<path d="M352.156 308.841L352.156 330.841L374.156 330.841L374.156 308.841L352.156 308.841Z" fill="#EEEEEE"/>
<path d="M352.156 286.841L352.156 308.841L374.156 308.841L374.156 286.841L352.156 286.841Z" fill="#EEEEEE"/>
<path d="M462.156 220.841L484.156 220.841L484.156 198.841L462.156 198.841L462.156 220.841Z" fill="#EEEEEE"/>
<path d="M440.156 220.841L462.156 220.841L462.156 198.841L440.156 198.841L440.156 220.841Z" fill="#EEEEEE"/>
<path d="M396.156 220.841L418.156 220.841L418.156 198.841L396.156 198.841L396.156 220.841Z" fill="#EEEEEE"/>
<path d="M418.156 176.841L396.156 176.841L396.156 198.841L418.156 198.841L418.156 176.841Z" fill="#EEEEEE"/>
<path d="M396.156 154.841L396.156 176.841L418.156 176.841L418.156 154.841L396.156 154.841Z" fill="#EEEEEE"/>
<path d="M418.156 132.841L418.156 154.841L440.156 154.841L440.156 132.841L418.156 132.841Z" fill="#EEEEEE"/>
<path d="M484.156 154.841L484.156 132.841L462.156 132.841L462.156 154.841L484.156 154.841Z" fill="#EEEEEE"/>
<path d="M462.156 132.841L440.156 132.841L440.156 154.841L462.156 154.841L462.156 132.841Z" fill="#EEEEEE"/>
<path d="M374.156 220.841L396.156 220.841L396.156 198.841L374.156 198.841L374.156 220.841Z" fill="#EEEEEE"/>
<path d="M352.156 110.841L352.156 132.841L374.156 132.841L374.156 110.841L352.156 110.841Z" fill="#EEEEEE"/>
<path d="M396.156 88.841L396.156 110.841L418.156 110.841L418.156 88.841L396.156 88.841Z" fill="#EEEEEE"/>
<path d="M374.156 110.841L396.156 110.841L396.156 88.841L374.156 88.841L374.156 110.841Z" fill="#EEEEEE"/>
<path d="M352.156 132.841L352.156 154.841L374.156 154.841L374.156 132.841L352.156 132.841Z" fill="#EEEEEE"/>
<path d="M484.156 66.841L462.156 66.841L462.156 88.841L484.156 88.841L484.156 66.841Z" fill="#EEEEEE"/>
<path d="M484.156 110.841L484.156 88.841L462.156 88.841L462.156 110.841L484.156 110.841Z" fill="#EEEEEE"/>
<path d="M418.156 88.841L418.156 110.841L440.156 110.841L440.156 88.841L418.156 88.841Z" fill="#EEEEEE"/>
<path d="M440.156 44.841L418.156 44.841L418.156 66.841L440.156 66.841L440.156 44.841Z" fill="#EEEEEE"/>
<path d="M440.156 22.841L418.156 22.841L418.156 44.841L440.156 44.841L440.156 22.841Z" fill="#EEEEEE"/>
<path d="M440.156 0.840957L418.156 0.840955L418.156 22.841L440.156 22.841L440.156 0.840957Z" fill="#EEEEEE"/>
<path d="M462.156 0.840959L440.156 0.840957L440.156 22.841L462.156 22.841L462.156 0.840959Z" fill="#EEEEEE"/>
<path d="M484.156 0.840961L462.156 0.840959L462.156 22.841L484.156 22.841L484.156 0.840961Z" fill="#EEEEEE"/>
<path d="M396.156 44.841L396.156 66.841L418.156 66.841L418.156 44.841L396.156 44.841Z" fill="#EEEEEE"/>
<path d="M374.156 66.841L396.156 66.841L396.156 44.841L374.156 44.841L374.156 66.841Z" fill="#EEEEEE"/>
<path d="M396.156 0.840953L374.156 0.840951L374.156 22.841L396.156 22.841L396.156 0.840953Z" fill="#EEEEEE"/>
<path d="M374.156 0.840951L352.156 0.84095L352.156 22.8409L374.156 22.841L374.156 0.840951Z" fill="#EEEEEE"/>
<path d="M352.156 0.84095L330.156 0.840948L330.156 22.8409L352.156 22.8409L352.156 0.84095Z" fill="#EEEEEE"/>
<path d="M330.156 44.8409L352.156 44.8409L352.156 22.8409L330.156 22.8409L330.156 44.8409Z" fill="#EEEEEE"/>
<path d="M308.156 330.841L308.156 352.841L330.156 352.841L330.156 330.841L308.156 330.841Z" fill="#EEEEEE"/>
<path d="M308.156 330.841L330.156 330.841L330.156 308.841L308.156 308.841L308.156 330.841Z" fill="#EEEEEE"/>
<path d="M308.156 264.841L308.156 286.841L330.156 286.841L330.156 264.841L308.156 264.841Z" fill="#EEEEEE"/>
<path d="M308.156 308.841L330.156 308.841L330.156 286.841L308.156 286.841L308.156 308.841Z" fill="#EEEEEE"/>
<path d="M308.156 264.841L330.156 264.841L330.156 242.841L308.156 242.841L308.156 264.841Z" fill="#EEEEEE"/>
<path d="M330.156 264.841L352.156 264.841L352.156 242.841L330.156 242.841L330.156 264.841Z" fill="#EEEEEE"/>
<path d="M352.156 242.841L352.156 264.841L374.156 264.841L374.156 242.841L352.156 242.841Z" fill="#EEEEEE"/>
<path d="M352.156 154.841L330.156 154.841L330.156 176.841L352.156 176.841L352.156 154.841Z" fill="#EEEEEE"/>
<path d="M352.156 154.841L352.156 176.841L374.156 176.841L374.156 154.841L352.156 154.841Z" fill="#EEEEEE"/>
<path d="M286.156 242.841L264.156 242.841L264.156 264.841L286.156 264.841L286.156 242.841Z" fill="#EEEEEE"/>
<path d="M242.156 286.841L242.156 308.841L264.156 308.841L264.156 286.841L242.156 286.841Z" fill="#EEEEEE"/>
<path d="M242.156 330.841L264.156 330.841L264.156 308.841L242.156 308.841L242.156 330.841Z" fill="#EEEEEE"/>
<path d="M242.156 352.841L264.156 352.841L264.156 330.841L242.156 330.841L242.156 352.841Z" fill="#EEEEEE"/>
<path d="M264.156 352.841L286.156 352.841L286.156 330.841L264.156 330.841L264.156 352.841Z" fill="#EEEEEE"/>
<path d="M198.156 352.841L220.156 352.841L220.156 330.841L198.156 330.841L198.156 352.841Z" fill="#EEEEEE"/>
<path d="M198.156 308.841L198.156 330.841L220.156 330.841L220.156 308.841L198.156 308.841Z" fill="#EEEEEE"/>
<path d="M220.156 286.841L198.156 286.841L198.156 308.841L220.156 308.841L220.156 286.841Z" fill="#EEEEEE"/>
<path d="M110.156 330.841L110.156 352.841L132.156 352.841L132.156 330.841L110.156 330.841Z" fill="#EEEEEE"/>
<path d="M132.156 330.841L132.156 308.841L110.156 308.841L110.156 330.841L132.156 330.841Z" fill="#EEEEEE"/>
<path d="M154.156 330.841L154.156 308.841L132.156 308.841L132.156 330.841L154.156 330.841Z" fill="#EEEEEE"/>
<path d="M154.156 308.841L154.156 330.841L176.156 330.841L176.156 308.841L154.156 308.841Z" fill="#EEEEEE"/>
<path d="M154.156 286.841L154.156 308.841L176.156 308.841L176.156 286.841L154.156 286.841Z" fill="#EEEEEE"/>
<path d="M154.156 242.841L154.156 264.841L176.156 264.841L176.156 242.841L154.156 242.841Z" fill="#EEEEEE"/>
<path d="M198.156 220.841L176.156 220.841L176.156 242.841L198.156 242.841L198.156 220.841Z" fill="#EEEEEE"/>
<path d="M308.156 220.841L330.156 220.841L330.156 198.841L308.156 198.841L308.156 220.841Z" fill="#EEEEEE"/>
<path d="M330.156 220.841L352.156 220.841L352.156 198.841L330.156 198.841L330.156 220.841Z" fill="#EEEEEE"/>
<path d="M264.156 220.841L286.156 220.841L286.156 198.841L264.156 198.841L264.156 220.841Z" fill="#EEEEEE"/>
<path d="M264.156 176.841L286.156 176.841L286.156 154.841L264.156 154.841L264.156 176.841Z" fill="#EEEEEE"/>
<path d="M286.156 154.841L286.156 176.841L308.156 176.841L308.156 154.841L286.156 154.841Z" fill="#EEEEEE"/>
<path d="M286.156 132.841L286.156 154.841L308.156 154.841L308.156 132.841L286.156 132.841Z" fill="#EEEEEE"/>
<path d="M286.156 110.841L308.156 110.841L308.156 88.8409L286.156 88.8409L286.156 110.841Z" fill="#EEEEEE"/>
<path d="M286.156 44.8409L286.156 66.8409L308.156 66.8409L308.156 44.8409L286.156 44.8409Z" fill="#EEEEEE"/>
<path d="M286.156 22.8409L286.156 44.8409L308.156 44.8409L308.156 22.8409L286.156 22.8409Z" fill="#EEEEEE"/>
<path d="M308.156 0.840946L286.156 0.840944L286.156 22.8409L308.156 22.8409L308.156 0.840946Z" fill="#EEEEEE"/>
<path d="M220.156 0.840938L198.156 0.840936L198.156 22.8409L220.156 22.8409L220.156 0.840938Z" fill="#EEEEEE"/>
<path d="M242.156 0.84094L220.156 0.840938L220.156 22.8409L242.156 22.8409L242.156 0.84094Z" fill="#EEEEEE"/>
<path d="M264.156 0.840942L242.156 0.84094L242.156 22.8409L264.156 22.8409L264.156 0.840942Z" fill="#EEEEEE"/>
<path d="M264.156 22.8409L242.156 22.8409L242.156 44.8409L264.156 44.8409L264.156 22.8409Z" fill="#EEEEEE"/>
<path d="M242.156 66.8409L242.156 88.8409L264.156 88.8409L264.156 66.8409L242.156 66.8409Z" fill="#EEEEEE"/>
<path d="M242.156 66.8409L220.156 66.8409L220.156 88.8409L242.156 88.8409L242.156 66.8409Z" fill="#EEEEEE"/>
<path d="M220.156 66.8409L198.156 66.8409L198.156 88.8409L220.156 88.8409L220.156 66.8409Z" fill="#EEEEEE"/>
<path d="M220.156 44.8409L198.156 44.8409L198.156 66.8409L220.156 66.8409L220.156 44.8409Z" fill="#EEEEEE"/>
<path d="M176.156 44.8409L176.156 66.8409L198.156 66.8409L198.156 44.8409L176.156 44.8409Z" fill="#EEEEEE"/>
<path d="M154.156 44.8409L154.156 66.8409L176.156 66.8409L176.156 44.8409L154.156 44.8409Z" fill="#EEEEEE"/>
<path d="M154.156 22.8409L154.156 44.8409L176.156 44.8409L176.156 22.8409L154.156 22.8409Z" fill="#EEEEEE"/>
<path d="M176.156 0.840934L154.156 0.840932L154.156 22.8409L176.156 22.8409L176.156 0.840934Z" fill="#EEEEEE"/>
<path d="M242.156 110.841L264.156 110.841L264.156 88.8409L242.156 88.8409L242.156 110.841Z" fill="#EEEEEE"/>
<path d="M242.156 132.841L264.156 132.841L264.156 110.841L242.156 110.841L242.156 132.841Z" fill="#EEEEEE"/>
<path d="M220.156 176.841L242.156 176.841L242.156 154.841L220.156 154.841L220.156 176.841Z" fill="#EEEEEE"/>
<path d="M198.156 132.841L220.156 132.841L220.156 110.841L198.156 110.841L198.156 132.841Z" fill="#EEEEEE"/>
<path d="M198.156 154.841L220.156 154.841L220.156 132.841L198.156 132.841L198.156 154.841Z" fill="#EEEEEE"/>
<path d="M198.156 154.841L198.156 176.841L220.156 176.841L220.156 154.841L198.156 154.841Z" fill="#EEEEEE"/>
<path d="M176.156 176.841L176.156 198.841L198.156 198.841L198.156 176.841L176.156 176.841Z" fill="#EEEEEE"/>
<path d="M176.156 176.841L198.156 176.841L198.156 154.841L176.156 154.841L176.156 176.841Z" fill="#EEEEEE"/>
<path d="M110.156 22.8409L110.156 44.8409L132.156 44.8409L132.156 22.8409L110.156 22.8409Z" fill="#EEEEEE"/>
<path d="M110.156 22.8409L88.1562 22.8409L88.1562 44.8409L110.156 44.8409L110.156 22.8409Z" fill="#EEEEEE"/>
<path d="M110.156 0.840928L88.1562 0.840926L88.1562 22.8409L110.156 22.8409L110.156 0.840928Z" fill="#EEEEEE"/>
<path d="M110.156 44.8409L110.156 66.8409L132.156 66.8409L132.156 44.8409L110.156 44.8409Z" fill="#EEEEEE"/>
<path d="M110.156 88.8409L132.156 88.8409L132.156 66.8409L110.156 66.8409L110.156 88.8409Z" fill="#EEEEEE"/>
<path d="M44.1562 66.8409L66.1562 66.8409L66.1562 44.8409L44.1562 44.8409L44.1562 66.8409Z" fill="#EEEEEE"/>
<path d="M66.1562 22.8409L44.1562 22.8409L44.1562 44.8409L66.1562 44.8409L66.1562 22.8409Z" fill="#EEEEEE"/>
<path d="M22.1562 0.840921L0.15622 0.840919L0.156218 22.8409L22.1562 22.8409L22.1562 0.840921Z" fill="#EEEEEE"/>
<path d="M0.156216 44.8409L22.1562 44.8409L22.1562 22.8409L0.156218 22.8409L0.156216 44.8409Z" fill="#EEEEEE"/>
<path d="M0.156216 44.8409L0.156214 66.8409L22.1562 66.8409L22.1562 44.8409L0.156216 44.8409Z" fill="#EEEEEE"/>
<path d="M22.1562 66.8409L0.156214 66.8409L0.156212 88.8409L22.1562 88.8409L22.1562 66.8409Z" fill="#EEEEEE"/>
<path d="M0.156212 88.8409L0.15621 110.841L22.1562 110.841L22.1562 88.8409L0.156212 88.8409Z" fill="#EEEEEE"/>
<path d="M0.15621 110.841L0.156208 132.841L22.1562 132.841L22.1562 110.841L0.15621 110.841Z" fill="#EEEEEE"/>
<path d="M110.156 176.841L110.156 198.841L132.156 198.841L132.156 176.841L110.156 176.841Z" fill="#EEEEEE"/>
<path d="M154.156 198.841L154.156 176.841L132.156 176.841L132.156 198.841L154.156 198.841Z" fill="#EEEEEE"/>
<path d="M110.156 176.841L132.156 176.841L132.156 154.841L110.156 154.841L110.156 176.841Z" fill="#EEEEEE"/>
<path d="M132.156 132.841L110.156 132.841L110.156 154.841L132.156 154.841L132.156 132.841Z" fill="#EEEEEE"/>
<path d="M154.156 110.841L132.156 110.841L132.156 132.841L154.156 132.841L154.156 110.841Z" fill="#EEEEEE"/>
<path d="M154.156 110.841L154.156 132.841L176.156 132.841L176.156 110.841L154.156 110.841Z" fill="#EEEEEE"/>
<path d="M154.156 88.8409L154.156 110.841L176.156 110.841L176.156 88.8409L154.156 88.8409Z" fill="#EEEEEE"/>
<path d="M154.156 154.841L154.156 132.841L132.156 132.841L132.156 154.841L154.156 154.841Z" fill="#EEEEEE"/>
<path d="M88.1562 88.8409L88.1562 110.841L110.156 110.841L110.156 88.8409L88.1562 88.8409Z" fill="#EEEEEE"/>
<path d="M110.156 66.8409L88.1562 66.8409L88.1562 88.8409L110.156 88.8409L110.156 66.8409Z" fill="#EEEEEE"/>
<path d="M66.1562 88.8409L66.1562 110.841L88.1562 110.841L88.1562 88.8409L66.1562 88.8409Z" fill="#EEEEEE"/>
<path d="M44.1562 110.841L66.1562 110.841L66.1562 88.8409L44.1562 88.8409L44.1562 110.841Z" fill="#EEEEEE"/>
<path d="M44.1562 88.8409L66.1562 88.8409L66.1562 66.8409L44.1562 66.8409L44.1562 88.8409Z" fill="#EEEEEE"/>
<path d="M88.1562 176.841L66.1562 176.841L66.1562 198.841L88.1562 198.841L88.1562 176.841Z" fill="#EEEEEE"/>
<path d="M66.1562 154.841L66.1562 176.841L88.1562 176.841L88.1562 154.841L66.1562 154.841Z" fill="#EEEEEE"/>
<path d="M66.1562 132.841L66.1562 154.841L88.1562 154.841L88.1562 132.841L66.1562 132.841Z" fill="#EEEEEE"/>
<path d="M66.1562 286.841L66.1562 308.841L88.1562 308.841L88.1562 286.841L66.1562 286.841Z" fill="#EEEEEE"/>
<path d="M110.156 264.841L88.1562 264.841L88.1562 286.841L110.156 286.841L110.156 264.841Z" fill="#EEEEEE"/>
<path d="M66.1562 264.841L66.1562 286.841L88.1562 286.841L88.1562 264.841L66.1562 264.841Z" fill="#EEEEEE"/>
<path d="M66.1562 308.841L66.1562 330.841L88.1562 330.841L88.1562 308.841L66.1562 308.841Z" fill="#EEEEEE"/>
<path d="M110.156 264.841L110.156 286.841L132.156 286.841L132.156 264.841L110.156 264.841Z" fill="#EEEEEE"/>
<path d="M132.156 220.841L110.156 220.841L110.156 242.841L132.156 242.841L132.156 220.841Z" fill="#EEEEEE"/>
<path d="M66.1562 220.841L88.1562 220.841L88.1562 198.841L66.1562 198.841L66.1562 220.841Z" fill="#EEEEEE"/>
<path d="M88.1562 220.841L66.1562 220.841L66.1562 242.841L88.1562 242.841L88.1562 220.841Z" fill="#EEEEEE"/>
<path d="M22.1562 330.841L22.1562 352.841L44.1562 352.841L44.1562 330.841L22.1562 330.841Z" fill="#EEEEEE"/>
<path d="M0.156191 330.841L0.156189 352.841L22.1562 352.841L22.1562 330.841L0.156191 330.841Z" fill="#EEEEEE"/>
<path d="M0.156193 308.841L0.156191 330.841L22.1562 330.841L22.1562 308.841L0.156193 308.841Z" fill="#EEEEEE"/>
<path d="M22.1562 286.841L0.156195 286.841L0.156193 308.841L22.1562 308.841L22.1562 286.841Z" fill="#EEEEEE"/>
<path d="M44.1562 308.841L66.1562 308.841L66.1562 286.841L44.1562 286.841L44.1562 308.841Z" fill="#EEEEEE"/>
<path d="M22.1562 242.841L22.1562 264.841L44.1562 264.841L44.1562 242.841L22.1562 242.841Z" fill="#EEEEEE"/>
<path d="M44.1562 220.841L22.1562 220.841L22.1562 242.841L44.1562 242.841L44.1562 220.841Z" fill="#EEEEEE"/>
<path d="M22.1562 220.841L0.156201 220.841L0.156199 242.841L22.1562 242.841L22.1562 220.841Z" fill="#EEEEEE"/>
<path d="M22.1562 176.841L0.156205 176.841L0.156203 198.841L22.1562 198.841L22.1562 176.841Z" fill="#EEEEEE"/>
<path d="M44.1562 176.841L22.1562 176.841L22.1562 198.841L44.1562 198.841L44.1562 176.841Z" fill="#EEEEEE"/>
<path d="M22.1562 154.841L22.1562 176.841L44.1562 176.841L44.1562 154.841L22.1562 154.841Z" fill="#EEEEEE"/>
<path d="M308.156 110.841L308.156 132.841L330.156 132.841L330.156 110.841L308.156 110.841Z" fill="#EEEEEE"/>
<path d="M286.156 110.841L286.156 132.841L308.156 132.841L308.156 110.841L286.156 110.841Z" fill="#EEEEEE"/>
<path d="M374.156 110.841L374.156 132.841L396.156 132.841L396.156 110.841L374.156 110.841Z" fill="#EEEEEE"/>
<path d="M418.156 154.841L418.156 176.841L440.156 176.841L440.156 154.841L418.156 154.841Z" fill="#EEEEEE"/>
<path d="M484.156 198.841L484.156 176.841L462.156 176.841L462.156 198.841L484.156 198.841Z" fill="#EEEEEE"/>
<path d="M352.156 66.8409L330.156 66.8409L330.156 88.8409L352.156 88.8409L352.156 66.8409Z" fill="#EEEEEE"/>
<path d="M242.156 220.841L264.156 220.841L264.156 198.841L242.156 198.841L242.156 220.841Z" fill="#EEEEEE"/>
<path d="M220.156 220.841L242.156 220.841L242.156 198.841L220.156 198.841L220.156 220.841Z" fill="#EEEEEE"/>
<path d="M242.156 220.841L220.156 220.841L220.156 242.841L242.156 242.841L242.156 220.841Z" fill="#EEEEEE"/>
<path d="M286.156 264.841L264.156 264.841L264.156 286.841L286.156 286.841L286.156 264.841Z" fill="#EEEEEE"/>
<path d="M286.156 286.841L264.156 286.841L264.156 308.841L286.156 308.841L286.156 286.841Z" fill="#EEEEEE"/>
<path d="M220.156 242.841L220.156 264.841L242.156 264.841L242.156 242.841L220.156 242.841Z" fill="#EEEEEE"/>
<path d="M176.156 242.841L176.156 264.841L198.156 264.841L198.156 242.841L176.156 242.841Z" fill="#EEEEEE"/>
<path d="M176.156 220.841L154.156 220.841L154.156 242.841L176.156 242.841L176.156 220.841Z" fill="#EEEEEE"/>
<path d="M484.156 396.841L484.156 418.841L462.156 418.841L462.156 396.841L484.156 396.841Z" fill="#EEEEEE"/>
<path d="M484.156 682.841L462.156 682.841L462.156 704.841L484.156 704.841L484.156 682.841Z" fill="#EEEEEE"/>
<path d="M440.156 682.841L440.156 704.841L462.156 704.841L462.156 682.841L440.156 682.841Z" fill="#EEEEEE"/>
<path d="M440.156 660.841L462.156 660.841L462.156 638.841L440.156 638.841L440.156 660.841Z" fill="#EEEEEE"/>
<path d="M462.156 682.841L462.156 660.841L440.156 660.841L440.156 682.841L462.156 682.841Z" fill="#EEEEEE"/>
<path d="M484.156 616.841L484.156 594.841L462.156 594.841L462.156 616.841L484.156 616.841Z" fill="#EEEEEE"/>
<path d="M440.156 594.841L440.156 616.841L462.156 616.841L462.156 594.841L440.156 594.841Z" fill="#EEEEEE"/>
<path d="M440.156 594.841L418.156 594.841L418.156 616.841L440.156 616.841L440.156 594.841Z" fill="#EEEEEE"/>
<path d="M396.156 594.841L396.156 616.841L418.156 616.841L418.156 594.841L396.156 594.841Z" fill="#EEEEEE"/>
<path d="M396.156 616.841L396.156 638.841L418.156 638.841L418.156 616.841L396.156 616.841Z" fill="#EEEEEE"/>
<path d="M396.156 682.841L396.156 704.841L418.156 704.841L418.156 682.841L396.156 682.841Z" fill="#EEEEEE"/>
<path d="M396.156 660.841L396.156 682.841L418.156 682.841L418.156 660.841L396.156 660.841Z" fill="#EEEEEE"/>
<path d="M374.156 682.841L396.156 682.841L396.156 660.841L374.156 660.841L374.156 682.841Z" fill="#EEEEEE"/>
<path d="M352.156 660.841L352.156 682.841L374.156 682.841L374.156 660.841L352.156 660.841Z" fill="#EEEEEE"/>
<path d="M352.156 638.841L352.156 660.841L374.156 660.841L374.156 638.841L352.156 638.841Z" fill="#EEEEEE"/>
<path d="M462.156 572.841L484.156 572.841L484.156 550.841L462.156 550.841L462.156 572.841Z" fill="#EEEEEE"/>
<path d="M440.156 572.841L462.156 572.841L462.156 550.841L440.156 550.841L440.156 572.841Z" fill="#EEEEEE"/>
<path d="M396.156 572.841L418.156 572.841L418.156 550.841L396.156 550.841L396.156 572.841Z" fill="#EEEEEE"/>
<path d="M418.156 528.841L396.156 528.841L396.156 550.841L418.156 550.841L418.156 528.841Z" fill="#EEEEEE"/>
<path d="M396.156 506.841L396.156 528.841L418.156 528.841L418.156 506.841L396.156 506.841Z" fill="#EEEEEE"/>
<path d="M418.156 484.841L418.156 506.841L440.156 506.841L440.156 484.841L418.156 484.841Z" fill="#EEEEEE"/>
<path d="M484.156 506.841L484.156 484.841L462.156 484.841L462.156 506.841L484.156 506.841Z" fill="#EEEEEE"/>
<path d="M462.156 484.841L440.156 484.841L440.156 506.841L462.156 506.841L462.156 484.841Z" fill="#EEEEEE"/>
<path d="M374.156 572.841L396.156 572.841L396.156 550.841L374.156 550.841L374.156 572.841Z" fill="#EEEEEE"/>
<path d="M352.156 462.841L352.156 484.841L374.156 484.841L374.156 462.841L352.156 462.841Z" fill="#EEEEEE"/>
<path d="M396.156 440.841L396.156 462.841L418.156 462.841L418.156 440.841L396.156 440.841Z" fill="#EEEEEE"/>
<path d="M374.156 462.841L396.156 462.841L396.156 440.841L374.156 440.841L374.156 462.841Z" fill="#EEEEEE"/>
<path d="M352.156 484.841L352.156 506.841L374.156 506.841L374.156 484.841L352.156 484.841Z" fill="#EEEEEE"/>
<path d="M484.156 418.841L462.156 418.841L462.156 440.841L484.156 440.841L484.156 418.841Z" fill="#EEEEEE"/>
<path d="M484.156 462.841L484.156 440.841L462.156 440.841L462.156 462.841L484.156 462.841Z" fill="#EEEEEE"/>
<path d="M418.156 440.841L418.156 462.841L440.156 462.841L440.156 440.841L418.156 440.841Z" fill="#EEEEEE"/>
<path d="M440.156 396.841L418.156 396.841L418.156 418.841L440.156 418.841L440.156 396.841Z" fill="#EEEEEE"/>
<path d="M440.156 374.841L418.156 374.841L418.156 396.841L440.156 396.841L440.156 374.841Z" fill="#EEEEEE"/>
<path d="M440.156 352.841L418.156 352.841L418.156 374.841L440.156 374.841L440.156 352.841Z" fill="#EEEEEE"/>
<path d="M462.156 352.841L440.156 352.841L440.156 374.841L462.156 374.841L462.156 352.841Z" fill="#EEEEEE"/>
<path d="M484.156 352.841L462.156 352.841L462.156 374.841L484.156 374.841L484.156 352.841Z" fill="#EEEEEE"/>
<path d="M396.156 396.841L396.156 418.841L418.156 418.841L418.156 396.841L396.156 396.841Z" fill="#EEEEEE"/>
<path d="M374.156 418.841L396.156 418.841L396.156 396.841L374.156 396.841L374.156 418.841Z" fill="#EEEEEE"/>
<path d="M396.156 352.841L374.156 352.841L374.156 374.841L396.156 374.841L396.156 352.841Z" fill="#EEEEEE"/>
<path d="M374.156 352.841L352.156 352.841L352.156 374.841L374.156 374.841L374.156 352.841Z" fill="#EEEEEE"/>
<path d="M352.156 352.841L330.156 352.841L330.156 374.841L352.156 374.841L352.156 352.841Z" fill="#EEEEEE"/>
<path d="M330.156 396.841L352.156 396.841L352.156 374.841L330.156 374.841L330.156 396.841Z" fill="#EEEEEE"/>
<path d="M308.156 682.841L308.156 704.841L330.156 704.841L330.156 682.841L308.156 682.841Z" fill="#EEEEEE"/>
<path d="M308.156 682.841L330.156 682.841L330.156 660.841L308.156 660.841L308.156 682.841Z" fill="#EEEEEE"/>
<path d="M308.156 616.841L308.156 638.841L330.156 638.841L330.156 616.841L308.156 616.841Z" fill="#EEEEEE"/>
<path d="M308.156 660.841L330.156 660.841L330.156 638.841L308.156 638.841L308.156 660.841Z" fill="#EEEEEE"/>
<path d="M308.156 616.841L330.156 616.841L330.156 594.841L308.156 594.841L308.156 616.841Z" fill="#EEEEEE"/>
<path d="M330.156 616.841L352.156 616.841L352.156 594.841L330.156 594.841L330.156 616.841Z" fill="#EEEEEE"/>
<path d="M352.156 594.841L352.156 616.841L374.156 616.841L374.156 594.841L352.156 594.841Z" fill="#EEEEEE"/>
<path d="M352.156 506.841L330.156 506.841L330.156 528.841L352.156 528.841L352.156 506.841Z" fill="#EEEEEE"/>
<path d="M352.156 506.841L352.156 528.841L374.156 528.841L374.156 506.841L352.156 506.841Z" fill="#EEEEEE"/>
<path d="M286.156 594.841L264.156 594.841L264.156 616.841L286.156 616.841L286.156 594.841Z" fill="#EEEEEE"/>
<path d="M242.156 638.841L242.156 660.841L264.156 660.841L264.156 638.841L242.156 638.841Z" fill="#EEEEEE"/>
<path d="M242.156 682.841L264.156 682.841L264.156 660.841L242.156 660.841L242.156 682.841Z" fill="#EEEEEE"/>
<path d="M242.156 704.841L264.156 704.841L264.156 682.841L242.156 682.841L242.156 704.841Z" fill="#EEEEEE"/>
<path d="M264.156 704.841L286.156 704.841L286.156 682.841L264.156 682.841L264.156 704.841Z" fill="#EEEEEE"/>
<path d="M198.156 704.841L220.156 704.841L220.156 682.841L198.156 682.841L198.156 704.841Z" fill="#EEEEEE"/>
<path d="M198.156 660.841L198.156 682.841L220.156 682.841L220.156 660.841L198.156 660.841Z" fill="#EEEEEE"/>
<path d="M220.156 638.841L198.156 638.841L198.156 660.841L220.156 660.841L220.156 638.841Z" fill="#EEEEEE"/>
<path d="M110.156 682.841L110.156 704.841L132.156 704.841L132.156 682.841L110.156 682.841Z" fill="#EEEEEE"/>
<path d="M132.156 682.841L132.156 660.841L110.156 660.841L110.156 682.841L132.156 682.841Z" fill="#EEEEEE"/>
<path d="M154.156 682.841L154.156 660.841L132.156 660.841L132.156 682.841L154.156 682.841Z" fill="#EEEEEE"/>
<path d="M154.156 660.841L154.156 682.841L176.156 682.841L176.156 660.841L154.156 660.841Z" fill="#EEEEEE"/>
<path d="M154.156 638.841L154.156 660.841L176.156 660.841L176.156 638.841L154.156 638.841Z" fill="#EEEEEE"/>
<path d="M154.156 594.841L154.156 616.841L176.156 616.841L176.156 594.841L154.156 594.841Z" fill="#EEEEEE"/>
<path d="M198.156 572.841L176.156 572.841L176.156 594.841L198.156 594.841L198.156 572.841Z" fill="#EEEEEE"/>
<path d="M308.156 572.841L330.156 572.841L330.156 550.841L308.156 550.841L308.156 572.841Z" fill="#EEEEEE"/>
<path d="M330.156 572.841L352.156 572.841L352.156 550.841L330.156 550.841L330.156 572.841Z" fill="#EEEEEE"/>
<path d="M264.156 572.841L286.156 572.841L286.156 550.841L264.156 550.841L264.156 572.841Z" fill="#EEEEEE"/>
<path d="M264.156 528.841L286.156 528.841L286.156 506.841L264.156 506.841L264.156 528.841Z" fill="#EEEEEE"/>
<path d="M286.156 506.841L286.156 528.841L308.156 528.841L308.156 506.841L286.156 506.841Z" fill="#EEEEEE"/>
<path d="M286.156 484.841L286.156 506.841L308.156 506.841L308.156 484.841L286.156 484.841Z" fill="#EEEEEE"/>
<path d="M286.156 462.841L308.156 462.841L308.156 440.841L286.156 440.841L286.156 462.841Z" fill="#EEEEEE"/>
<path d="M286.156 396.841L286.156 418.841L308.156 418.841L308.156 396.841L286.156 396.841Z" fill="#EEEEEE"/>
<path d="M286.156 374.841L286.156 396.841L308.156 396.841L308.156 374.841L286.156 374.841Z" fill="#EEEEEE"/>
<path d="M308.156 352.841L286.156 352.841L286.156 374.841L308.156 374.841L308.156 352.841Z" fill="#EEEEEE"/>
<path d="M220.156 352.841L198.156 352.841L198.156 374.841L220.156 374.841L220.156 352.841Z" fill="#EEEEEE"/>
<path d="M242.156 352.841L220.156 352.841L220.156 374.841L242.156 374.841L242.156 352.841Z" fill="#EEEEEE"/>
<path d="M264.156 352.841L242.156 352.841L242.156 374.841L264.156 374.841L264.156 352.841Z" fill="#EEEEEE"/>
<path d="M264.156 374.841L242.156 374.841L242.156 396.841L264.156 396.841L264.156 374.841Z" fill="#EEEEEE"/>
<path d="M242.156 418.841L242.156 440.841L264.156 440.841L264.156 418.841L242.156 418.841Z" fill="#EEEEEE"/>
<path d="M242.156 418.841L220.156 418.841L220.156 440.841L242.156 440.841L242.156 418.841Z" fill="#EEEEEE"/>
<path d="M220.156 418.841L198.156 418.841L198.156 440.841L220.156 440.841L220.156 418.841Z" fill="#EEEEEE"/>
<path d="M220.156 396.841L198.156 396.841L198.156 418.841L220.156 418.841L220.156 396.841Z" fill="#EEEEEE"/>
<path d="M176.156 396.841L176.156 418.841L198.156 418.841L198.156 396.841L176.156 396.841Z" fill="#EEEEEE"/>
<path d="M154.156 396.841L154.156 418.841L176.156 418.841L176.156 396.841L154.156 396.841Z" fill="#EEEEEE"/>
<path d="M154.156 374.841L154.156 396.841L176.156 396.841L176.156 374.841L154.156 374.841Z" fill="#EEEEEE"/>
<path d="M176.156 352.841L154.156 352.841L154.156 374.841L176.156 374.841L176.156 352.841Z" fill="#EEEEEE"/>
<path d="M242.156 462.841L264.156 462.841L264.156 440.841L242.156 440.841L242.156 462.841Z" fill="#EEEEEE"/>
<path d="M242.156 484.841L264.156 484.841L264.156 462.841L242.156 462.841L242.156 484.841Z" fill="#EEEEEE"/>
<path d="M220.156 528.841L242.156 528.841L242.156 506.841L220.156 506.841L220.156 528.841Z" fill="#EEEEEE"/>
<path d="M198.156 484.841L220.156 484.841L220.156 462.841L198.156 462.841L198.156 484.841Z" fill="#EEEEEE"/>
<path d="M198.156 506.841L220.156 506.841L220.156 484.841L198.156 484.841L198.156 506.841Z" fill="#EEEEEE"/>
<path d="M198.156 506.841L198.156 528.841L220.156 528.841L220.156 506.841L198.156 506.841Z" fill="#EEEEEE"/>
<path d="M176.156 528.841L176.156 550.841L198.156 550.841L198.156 528.841L176.156 528.841Z" fill="#EEEEEE"/>
<path d="M176.156 528.841L198.156 528.841L198.156 506.841L176.156 506.841L176.156 528.841Z" fill="#EEEEEE"/>
<path d="M110.156 374.841L110.156 396.841L132.156 396.841L132.156 374.841L110.156 374.841Z" fill="#EEEEEE"/>
<path d="M110.156 374.841L88.1562 374.841L88.1562 396.841L110.156 396.841L110.156 374.841Z" fill="#EEEEEE"/>
<path d="M110.156 352.841L88.1562 352.841L88.1562 374.841L110.156 374.841L110.156 352.841Z" fill="#EEEEEE"/>
<path d="M110.156 396.841L110.156 418.841L132.156 418.841L132.156 396.841L110.156 396.841Z" fill="#EEEEEE"/>
<path d="M110.156 440.841L132.156 440.841L132.156 418.841L110.156 418.841L110.156 440.841Z" fill="#EEEEEE"/>
<path d="M44.1562 418.841L66.1562 418.841L66.1562 396.841L44.1562 396.841L44.1562 418.841Z" fill="#EEEEEE"/>
<path d="M66.1562 374.841L44.1562 374.841L44.1562 396.841L66.1562 396.841L66.1562 374.841Z" fill="#EEEEEE"/>
<path d="M22.1562 352.841L0.156189 352.841L0.156187 374.841L22.1562 374.841L22.1562 352.841Z" fill="#EEEEEE"/>
<path d="M0.156185 396.841L22.1562 396.841L22.1562 374.841L0.156187 374.841L0.156185 396.841Z" fill="#EEEEEE"/>
<path d="M0.156185 396.841L0.156183 418.841L22.1562 418.841L22.1562 396.841L0.156185 396.841Z" fill="#EEEEEE"/>
<path d="M22.1562 418.841L0.156183 418.841L0.156182 440.841L22.1562 440.841L22.1562 418.841Z" fill="#EEEEEE"/>
<path d="M0.156182 440.841L0.15618 462.841L22.1562 462.841L22.1562 440.841L0.156182 440.841Z" fill="#EEEEEE"/>
<path d="M0.15618 462.841L0.156178 484.841L22.1562 484.841L22.1562 462.841L0.15618 462.841Z" fill="#EEEEEE"/>
<path d="M110.156 528.841L110.156 550.841L132.156 550.841L132.156 528.841L110.156 528.841Z" fill="#EEEEEE"/>
<path d="M154.156 550.841L154.156 528.841L132.156 528.841L132.156 550.841L154.156 550.841Z" fill="#EEEEEE"/>
<path d="M110.156 528.841L132.156 528.841L132.156 506.841L110.156 506.841L110.156 528.841Z" fill="#EEEEEE"/>
<path d="M132.156 484.841L110.156 484.841L110.156 506.841L132.156 506.841L132.156 484.841Z" fill="#EEEEEE"/>
<path d="M154.156 462.841L132.156 462.841L132.156 484.841L154.156 484.841L154.156 462.841Z" fill="#EEEEEE"/>
<path d="M154.156 462.841L154.156 484.841L176.156 484.841L176.156 462.841L154.156 462.841Z" fill="#EEEEEE"/>
<path d="M154.156 440.841L154.156 462.841L176.156 462.841L176.156 440.841L154.156 440.841Z" fill="#EEEEEE"/>
<path d="M154.156 506.841L154.156 484.841L132.156 484.841L132.156 506.841L154.156 506.841Z" fill="#EEEEEE"/>
<path d="M88.1562 440.841L88.1562 462.841L110.156 462.841L110.156 440.841L88.1562 440.841Z" fill="#EEEEEE"/>
<path d="M110.156 418.841L88.1562 418.841L88.1562 440.841L110.156 440.841L110.156 418.841Z" fill="#EEEEEE"/>
<path d="M66.1562 440.841L66.1562 462.841L88.1562 462.841L88.1562 440.841L66.1562 440.841Z" fill="#EEEEEE"/>
<path d="M44.1562 462.841L66.1562 462.841L66.1562 440.841L44.1562 440.841L44.1562 462.841Z" fill="#EEEEEE"/>
<path d="M44.1562 440.841L66.1562 440.841L66.1562 418.841L44.1562 418.841L44.1562 440.841Z" fill="#EEEEEE"/>
<path d="M88.1562 528.841L66.1562 528.841L66.1562 550.841L88.1562 550.841L88.1562 528.841Z" fill="#EEEEEE"/>
<path d="M66.1562 506.841L66.1562 528.841L88.1562 528.841L88.1562 506.841L66.1562 506.841Z" fill="#EEEEEE"/>
<path d="M66.1562 484.841L66.1562 506.841L88.1562 506.841L88.1562 484.841L66.1562 484.841Z" fill="#EEEEEE"/>
<path d="M66.1562 638.841L66.1562 660.841L88.1562 660.841L88.1562 638.841L66.1562 638.841Z" fill="#EEEEEE"/>
<path d="M110.156 616.841L88.1562 616.841L88.1562 638.841L110.156 638.841L110.156 616.841Z" fill="#EEEEEE"/>
<path d="M66.1562 616.841L66.1562 638.841L88.1562 638.841L88.1562 616.841L66.1562 616.841Z" fill="#EEEEEE"/>
<path d="M66.1562 660.841L66.1562 682.841L88.1562 682.841L88.1562 660.841L66.1562 660.841Z" fill="#EEEEEE"/>
<path d="M110.156 616.841L110.156 638.841L132.156 638.841L132.156 616.841L110.156 616.841Z" fill="#EEEEEE"/>
<path d="M132.156 572.841L110.156 572.841L110.156 594.841L132.156 594.841L132.156 572.841Z" fill="#EEEEEE"/>
<path d="M66.1562 572.841L88.1562 572.841L88.1562 550.841L66.1562 550.841L66.1562 572.841Z" fill="#EEEEEE"/>
<path d="M88.1562 572.841L66.1562 572.841L66.1562 594.841L88.1562 594.841L88.1562 572.841Z" fill="#EEEEEE"/>
<path d="M22.1562 682.841L22.1562 704.841L44.1562 704.841L44.1562 682.841L22.1562 682.841Z" fill="#EEEEEE"/>
<path d="M0.15616 682.841L0.156158 704.841L22.1562 704.841L22.1562 682.841L0.15616 682.841Z" fill="#EEEEEE"/>
<path d="M0.156162 660.841L0.15616 682.841L22.1562 682.841L22.1562 660.841L0.156162 660.841Z" fill="#EEEEEE"/>
<path d="M22.1562 638.841L0.156164 638.841L0.156162 660.841L22.1562 660.841L22.1562 638.841Z" fill="#EEEEEE"/>
<path d="M44.1562 660.841L66.1562 660.841L66.1562 638.841L44.1562 638.841L44.1562 660.841Z" fill="#EEEEEE"/>
<path d="M22.1562 594.841L22.1562 616.841L44.1562 616.841L44.1562 594.841L22.1562 594.841Z" fill="#EEEEEE"/>
<path d="M44.1562 572.841L22.1562 572.841L22.1562 594.841L44.1562 594.841L44.1562 572.841Z" fill="#EEEEEE"/>
<path d="M22.1562 572.841L0.15617 572.841L0.156168 594.841L22.1562 594.841L22.1562 572.841Z" fill="#EEEEEE"/>
<path d="M22.1562 528.841L0.156174 528.841L0.156172 550.841L22.1562 550.841L22.1562 528.841Z" fill="#EEEEEE"/>
<path d="M44.1562 528.841L22.1562 528.841L22.1562 550.841L44.1562 550.841L44.1562 528.841Z" fill="#EEEEEE"/>
<path d="M22.1562 506.841L22.1562 528.841L44.1562 528.841L44.1562 506.841L22.1562 506.841Z" fill="#EEEEEE"/>
<path d="M308.156 462.841L308.156 484.841L330.156 484.841L330.156 462.841L308.156 462.841Z" fill="#EEEEEE"/>
<path d="M286.156 462.841L286.156 484.841L308.156 484.841L308.156 462.841L286.156 462.841Z" fill="#EEEEEE"/>
<path d="M374.156 462.841L374.156 484.841L396.156 484.841L396.156 462.841L374.156 462.841Z" fill="#EEEEEE"/>
<path d="M418.156 506.841L418.156 528.841L440.156 528.841L440.156 506.841L418.156 506.841Z" fill="#EEEEEE"/>
<path d="M484.156 550.841L484.156 528.841L462.156 528.841L462.156 550.841L484.156 550.841Z" fill="#EEEEEE"/>
<path d="M352.156 418.841L330.156 418.841L330.156 440.841L352.156 440.841L352.156 418.841Z" fill="#EEEEEE"/>
<path d="M242.156 572.841L264.156 572.841L264.156 550.841L242.156 550.841L242.156 572.841Z" fill="#EEEEEE"/>
<path d="M220.156 572.841L242.156 572.841L242.156 550.841L220.156 550.841L220.156 572.841Z" fill="#EEEEEE"/>
<path d="M242.156 572.841L220.156 572.841L220.156 594.841L242.156 594.841L242.156 572.841Z" fill="#EEEEEE"/>
<path d="M286.156 616.841L264.156 616.841L264.156 638.841L286.156 638.841L286.156 616.841Z" fill="#EEEEEE"/>
<path d="M286.156 638.841L264.156 638.841L264.156 660.841L286.156 660.841L286.156 638.841Z" fill="#EEEEEE"/>
<path d="M220.156 594.841L220.156 616.841L242.156 616.841L242.156 594.841L220.156 594.841Z" fill="#EEEEEE"/>
<path d="M176.156 594.841L176.156 616.841L198.156 616.841L198.156 594.841L176.156 594.841Z" fill="#EEEEEE"/>
<path d="M176.156 572.841L154.156 572.841L154.156 594.841L176.156 594.841L176.156 572.841Z" fill="#EEEEEE"/>
<path d="M968.156 396.841L968.156 418.841L946.156 418.841L946.156 396.841L968.156 396.841Z" fill="#EEEEEE"/>
<path d="M968.156 682.841L946.156 682.841L946.156 704.841L968.156 704.841L968.156 682.841Z" fill="#EEEEEE"/>
<path d="M924.156 682.841L924.156 704.841L946.156 704.841L946.156 682.841L924.156 682.841Z" fill="#EEEEEE"/>
<path d="M924.156 660.841L946.156 660.841L946.156 638.841L924.156 638.841L924.156 660.841Z" fill="#EEEEEE"/>
<path d="M946.156 682.841L946.156 660.841L924.156 660.841L924.156 682.841L946.156 682.841Z" fill="#EEEEEE"/>
<path d="M968.156 616.841L968.156 594.841L946.156 594.841L946.156 616.841L968.156 616.841Z" fill="#EEEEEE"/>
<path d="M924.156 594.841L924.156 616.841L946.156 616.841L946.156 594.841L924.156 594.841Z" fill="#EEEEEE"/>
<path d="M924.156 594.841L902.156 594.841L902.156 616.841L924.156 616.841L924.156 594.841Z" fill="#EEEEEE"/>
<path d="M880.156 594.841L880.156 616.841L902.156 616.841L902.156 594.841L880.156 594.841Z" fill="#EEEEEE"/>
<path d="M880.156 616.841L880.156 638.841L902.156 638.841L902.156 616.841L880.156 616.841Z" fill="#EEEEEE"/>
<path d="M880.156 682.841L880.156 704.841L902.156 704.841L902.156 682.841L880.156 682.841Z" fill="#EEEEEE"/>
<path d="M880.156 660.841L880.156 682.841L902.156 682.841L902.156 660.841L880.156 660.841Z" fill="#EEEEEE"/>
<path d="M858.156 682.841L880.156 682.841L880.156 660.841L858.156 660.841L858.156 682.841Z" fill="#EEEEEE"/>
<path d="M836.156 660.841L836.156 682.841L858.156 682.841L858.156 660.841L836.156 660.841Z" fill="#EEEEEE"/>
<path d="M836.156 638.841L836.156 660.841L858.156 660.841L858.156 638.841L836.156 638.841Z" fill="#EEEEEE"/>
<path d="M946.156 572.841L968.156 572.841L968.156 550.841L946.156 550.841L946.156 572.841Z" fill="#EEEEEE"/>
<path d="M924.156 572.841L946.156 572.841L946.156 550.841L924.156 550.841L924.156 572.841Z" fill="#EEEEEE"/>
<path d="M880.156 572.841L902.156 572.841L902.156 550.841L880.156 550.841L880.156 572.841Z" fill="#EEEEEE"/>
<path d="M902.156 528.841L880.156 528.841L880.156 550.841L902.156 550.841L902.156 528.841Z" fill="#EEEEEE"/>
<path d="M880.156 506.841L880.156 528.841L902.156 528.841L902.156 506.841L880.156 506.841Z" fill="#EEEEEE"/>
<path d="M902.156 484.841L902.156 506.841L924.156 506.841L924.156 484.841L902.156 484.841Z" fill="#EEEEEE"/>
<path d="M968.156 506.841L968.156 484.841L946.156 484.841L946.156 506.841L968.156 506.841Z" fill="#EEEEEE"/>
<path d="M946.156 484.841L924.156 484.841L924.156 506.841L946.156 506.841L946.156 484.841Z" fill="#EEEEEE"/>
<path d="M858.156 572.841L880.156 572.841L880.156 550.841L858.156 550.841L858.156 572.841Z" fill="#EEEEEE"/>
<path d="M836.156 462.841L836.156 484.841L858.156 484.841L858.156 462.841L836.156 462.841Z" fill="#EEEEEE"/>
<path d="M880.156 440.841L880.156 462.841L902.156 462.841L902.156 440.841L880.156 440.841Z" fill="#EEEEEE"/>
<path d="M858.156 462.841L880.156 462.841L880.156 440.841L858.156 440.841L858.156 462.841Z" fill="#EEEEEE"/>
<path d="M836.156 484.841L836.156 506.841L858.156 506.841L858.156 484.841L836.156 484.841Z" fill="#EEEEEE"/>
<path d="M968.156 418.841L946.156 418.841L946.156 440.841L968.156 440.841L968.156 418.841Z" fill="#EEEEEE"/>
<path d="M968.156 462.841L968.156 440.841L946.156 440.841L946.156 462.841L968.156 462.841Z" fill="#EEEEEE"/>
<path d="M902.156 440.841L902.156 462.841L924.156 462.841L924.156 440.841L902.156 440.841Z" fill="#EEEEEE"/>
<path d="M924.156 396.841L902.156 396.841L902.156 418.841L924.156 418.841L924.156 396.841Z" fill="#EEEEEE"/>
<path d="M924.156 374.841L902.156 374.841L902.156 396.841L924.156 396.841L924.156 374.841Z" fill="#EEEEEE"/>
<path d="M924.156 352.841L902.156 352.841L902.156 374.841L924.156 374.841L924.156 352.841Z" fill="#EEEEEE"/>
<path d="M946.156 352.841L924.156 352.841L924.156 374.841L946.156 374.841L946.156 352.841Z" fill="#EEEEEE"/>
<path d="M968.156 352.841L946.156 352.841L946.156 374.841L968.156 374.841L968.156 352.841Z" fill="#EEEEEE"/>
<path d="M880.156 396.841L880.156 418.841L902.156 418.841L902.156 396.841L880.156 396.841Z" fill="#EEEEEE"/>
<path d="M858.156 418.841L880.156 418.841L880.156 396.841L858.156 396.841L858.156 418.841Z" fill="#EEEEEE"/>
<path d="M880.156 352.841L858.156 352.841L858.156 374.841L880.156 374.841L880.156 352.841Z" fill="#EEEEEE"/>
<path d="M858.156 352.841L836.156 352.841L836.156 374.841L858.156 374.841L858.156 352.841Z" fill="#EEEEEE"/>
<path d="M836.156 352.841L814.156 352.841L814.156 374.841L836.156 374.841L836.156 352.841Z" fill="#EEEEEE"/>
<path d="M814.156 396.841L836.156 396.841L836.156 374.841L814.156 374.841L814.156 396.841Z" fill="#EEEEEE"/>
<path d="M792.156 682.841L792.156 704.841L814.156 704.841L814.156 682.841L792.156 682.841Z" fill="#EEEEEE"/>
<path d="M792.156 682.841L814.156 682.841L814.156 660.841L792.156 660.841L792.156 682.841Z" fill="#EEEEEE"/>
<path d="M792.156 616.841L792.156 638.841L814.156 638.841L814.156 616.841L792.156 616.841Z" fill="#EEEEEE"/>
<path d="M792.156 660.841L814.156 660.841L814.156 638.841L792.156 638.841L792.156 660.841Z" fill="#EEEEEE"/>
<path d="M792.156 616.841L814.156 616.841L814.156 594.841L792.156 594.841L792.156 616.841Z" fill="#EEEEEE"/>
<path d="M814.156 616.841L836.156 616.841L836.156 594.841L814.156 594.841L814.156 616.841Z" fill="#EEEEEE"/>
<path d="M836.156 594.841L836.156 616.841L858.156 616.841L858.156 594.841L836.156 594.841Z" fill="#EEEEEE"/>
<path d="M836.156 506.841L814.156 506.841L814.156 528.841L836.156 528.841L836.156 506.841Z" fill="#EEEEEE"/>
<path d="M836.156 506.841L836.156 528.841L858.156 528.841L858.156 506.841L836.156 506.841Z" fill="#EEEEEE"/>
<path d="M770.156 594.841L748.156 594.841L748.156 616.841L770.156 616.841L770.156 594.841Z" fill="#EEEEEE"/>
<path d="M726.156 638.841L726.156 660.841L748.156 660.841L748.156 638.841L726.156 638.841Z" fill="#EEEEEE"/>
<path d="M726.156 682.841L748.156 682.841L748.156 660.841L726.156 660.841L726.156 682.841Z" fill="#EEEEEE"/>
<path d="M726.156 704.841L748.156 704.841L748.156 682.841L726.156 682.841L726.156 704.841Z" fill="#EEEEEE"/>
<path d="M748.156 704.841L770.156 704.841L770.156 682.841L748.156 682.841L748.156 704.841Z" fill="#EEEEEE"/>
<path d="M682.156 704.841L704.156 704.841L704.156 682.841L682.156 682.841L682.156 704.841Z" fill="#EEEEEE"/>
<path d="M682.156 660.841L682.156 682.841L704.156 682.841L704.156 660.841L682.156 660.841Z" fill="#EEEEEE"/>
<path d="M704.156 638.841L682.156 638.841L682.156 660.841L704.156 660.841L704.156 638.841Z" fill="#EEEEEE"/>
<path d="M594.156 682.841L594.156 704.841L616.156 704.841L616.156 682.841L594.156 682.841Z" fill="#EEEEEE"/>
<path d="M616.156 682.841L616.156 660.841L594.156 660.841L594.156 682.841L616.156 682.841Z" fill="#EEEEEE"/>
<path d="M638.156 682.841L638.156 660.841L616.156 660.841L616.156 682.841L638.156 682.841Z" fill="#EEEEEE"/>
<path d="M638.156 660.841L638.156 682.841L660.156 682.841L660.156 660.841L638.156 660.841Z" fill="#EEEEEE"/>
<path d="M638.156 638.841L638.156 660.841L660.156 660.841L660.156 638.841L638.156 638.841Z" fill="#EEEEEE"/>
<path d="M638.156 594.841L638.156 616.841L660.156 616.841L660.156 594.841L638.156 594.841Z" fill="#EEEEEE"/>
<path d="M682.156 572.841L660.156 572.841L660.156 594.841L682.156 594.841L682.156 572.841Z" fill="#EEEEEE"/>
<path d="M792.156 572.841L814.156 572.841L814.156 550.841L792.156 550.841L792.156 572.841Z" fill="#EEEEEE"/>
<path d="M814.156 572.841L836.156 572.841L836.156 550.841L814.156 550.841L814.156 572.841Z" fill="#EEEEEE"/>
<path d="M748.156 572.841L770.156 572.841L770.156 550.841L748.156 550.841L748.156 572.841Z" fill="#EEEEEE"/>
<path d="M748.156 528.841L770.156 528.841L770.156 506.841L748.156 506.841L748.156 528.841Z" fill="#EEEEEE"/>
<path d="M770.156 506.841L770.156 528.841L792.156 528.841L792.156 506.841L770.156 506.841Z" fill="#EEEEEE"/>
<path d="M770.156 484.841L770.156 506.841L792.156 506.841L792.156 484.841L770.156 484.841Z" fill="#EEEEEE"/>
<path d="M770.156 462.841L792.156 462.841L792.156 440.841L770.156 440.841L770.156 462.841Z" fill="#EEEEEE"/>
<path d="M770.156 396.841L770.156 418.841L792.156 418.841L792.156 396.841L770.156 396.841Z" fill="#EEEEEE"/>
<path d="M770.156 374.841L770.156 396.841L792.156 396.841L792.156 374.841L770.156 374.841Z" fill="#EEEEEE"/>
<path d="M792.156 352.841L770.156 352.841L770.156 374.841L792.156 374.841L792.156 352.841Z" fill="#EEEEEE"/>
<path d="M704.156 352.841L682.156 352.841L682.156 374.841L704.156 374.841L704.156 352.841Z" fill="#EEEEEE"/>
<path d="M726.156 352.841L704.156 352.841L704.156 374.841L726.156 374.841L726.156 352.841Z" fill="#EEEEEE"/>
<path d="M748.156 352.841L726.156 352.841L726.156 374.841L748.156 374.841L748.156 352.841Z" fill="#EEEEEE"/>
<path d="M748.156 374.841L726.156 374.841L726.156 396.841L748.156 396.841L748.156 374.841Z" fill="#EEEEEE"/>
<path d="M726.156 418.841L726.156 440.841L748.156 440.841L748.156 418.841L726.156 418.841Z" fill="#EEEEEE"/>
<path d="M726.156 418.841L704.156 418.841L704.156 440.841L726.156 440.841L726.156 418.841Z" fill="#EEEEEE"/>
<path d="M704.156 418.841L682.156 418.841L682.156 440.841L704.156 440.841L704.156 418.841Z" fill="#EEEEEE"/>
<path d="M704.156 396.841L682.156 396.841L682.156 418.841L704.156 418.841L704.156 396.841Z" fill="#EEEEEE"/>
<path d="M660.156 396.841L660.156 418.841L682.156 418.841L682.156 396.841L660.156 396.841Z" fill="#EEEEEE"/>
<path d="M638.156 396.841L638.156 418.841L660.156 418.841L660.156 396.841L638.156 396.841Z" fill="#EEEEEE"/>
<path d="M638.156 374.841L638.156 396.841L660.156 396.841L660.156 374.841L638.156 374.841Z" fill="#EEEEEE"/>
<path d="M660.156 352.841L638.156 352.841L638.156 374.841L660.156 374.841L660.156 352.841Z" fill="#EEEEEE"/>
<path d="M726.156 462.841L748.156 462.841L748.156 440.841L726.156 440.841L726.156 462.841Z" fill="#EEEEEE"/>
<path d="M726.156 484.841L748.156 484.841L748.156 462.841L726.156 462.841L726.156 484.841Z" fill="#EEEEEE"/>
<path d="M704.156 528.841L726.156 528.841L726.156 506.841L704.156 506.841L704.156 528.841Z" fill="#EEEEEE"/>
<path d="M682.156 484.841L704.156 484.841L704.156 462.841L682.156 462.841L682.156 484.841Z" fill="#EEEEEE"/>
<path d="M682.156 506.841L704.156 506.841L704.156 484.841L682.156 484.841L682.156 506.841Z" fill="#EEEEEE"/>
<path d="M682.156 506.841L682.156 528.841L704.156 528.841L704.156 506.841L682.156 506.841Z" fill="#EEEEEE"/>
<path d="M660.156 528.841L660.156 550.841L682.156 550.841L682.156 528.841L660.156 528.841Z" fill="#EEEEEE"/>
<path d="M660.156 528.841L682.156 528.841L682.156 506.841L660.156 506.841L660.156 528.841Z" fill="#EEEEEE"/>
<path d="M594.156 374.841L594.156 396.841L616.156 396.841L616.156 374.841L594.156 374.841Z" fill="#EEEEEE"/>
<path d="M594.156 374.841L572.156 374.841L572.156 396.841L594.156 396.841L594.156 374.841Z" fill="#EEEEEE"/>
<path d="M594.156 352.841L572.156 352.841L572.156 374.841L594.156 374.841L594.156 352.841Z" fill="#EEEEEE"/>
<path d="M594.156 396.841L594.156 418.841L616.156 418.841L616.156 396.841L594.156 396.841Z" fill="#EEEEEE"/>
<path d="M594.156 440.841L616.156 440.841L616.156 418.841L594.156 418.841L594.156 440.841Z" fill="#EEEEEE"/>
<path d="M528.156 418.841L550.156 418.841L550.156 396.841L528.156 396.841L528.156 418.841Z" fill="#EEEEEE"/>
<path d="M550.156 374.841L528.156 374.841L528.156 396.841L550.156 396.841L550.156 374.841Z" fill="#EEEEEE"/>
<path d="M506.156 352.841L484.156 352.841L484.156 374.841L506.156 374.841L506.156 352.841Z" fill="#EEEEEE"/>
<path d="M484.156 396.841L506.156 396.841L506.156 374.841L484.156 374.841L484.156 396.841Z" fill="#EEEEEE"/>
<path d="M484.156 396.841L484.156 418.841L506.156 418.841L506.156 396.841L484.156 396.841Z" fill="#EEEEEE"/>
<path d="M506.156 418.841L484.156 418.841L484.156 440.841L506.156 440.841L506.156 418.841Z" fill="#EEEEEE"/>
<path d="M484.156 440.841L484.156 462.841L506.156 462.841L506.156 440.841L484.156 440.841Z" fill="#EEEEEE"/>
<path d="M484.156 462.841L484.156 484.841L506.156 484.841L506.156 462.841L484.156 462.841Z" fill="#EEEEEE"/>
<path d="M594.156 528.841L594.156 550.841L616.156 550.841L616.156 528.841L594.156 528.841Z" fill="#EEEEEE"/>
<path d="M638.156 550.841L638.156 528.841L616.156 528.841L616.156 550.841L638.156 550.841Z" fill="#EEEEEE"/>
<path d="M594.156 528.841L616.156 528.841L616.156 506.841L594.156 506.841L594.156 528.841Z" fill="#EEEEEE"/>
<path d="M616.156 484.841L594.156 484.841L594.156 506.841L616.156 506.841L616.156 484.841Z" fill="#EEEEEE"/>
<path d="M638.156 462.841L616.156 462.841L616.156 484.841L638.156 484.841L638.156 462.841Z" fill="#EEEEEE"/>
<path d="M638.156 462.841L638.156 484.841L660.156 484.841L660.156 462.841L638.156 462.841Z" fill="#EEEEEE"/>
<path d="M638.156 440.841L638.156 462.841L660.156 462.841L660.156 440.841L638.156 440.841Z" fill="#EEEEEE"/>
<path d="M638.156 506.841L638.156 484.841L616.156 484.841L616.156 506.841L638.156 506.841Z" fill="#EEEEEE"/>
<path d="M572.156 440.841L572.156 462.841L594.156 462.841L594.156 440.841L572.156 440.841Z" fill="#EEEEEE"/>
<path d="M594.156 418.841L572.156 418.841L572.156 440.841L594.156 440.841L594.156 418.841Z" fill="#EEEEEE"/>
<path d="M550.156 440.841L550.156 462.841L572.156 462.841L572.156 440.841L550.156 440.841Z" fill="#EEEEEE"/>
<path d="M528.156 462.841L550.156 462.841L550.156 440.841L528.156 440.841L528.156 462.841Z" fill="#EEEEEE"/>
<path d="M528.156 440.841L550.156 440.841L550.156 418.841L528.156 418.841L528.156 440.841Z" fill="#EEEEEE"/>
<path d="M572.156 528.841L550.156 528.841L550.156 550.841L572.156 550.841L572.156 528.841Z" fill="#EEEEEE"/>
<path d="M550.156 506.841L550.156 528.841L572.156 528.841L572.156 506.841L550.156 506.841Z" fill="#EEEEEE"/>
<path d="M550.156 484.841L550.156 506.841L572.156 506.841L572.156 484.841L550.156 484.841Z" fill="#EEEEEE"/>
<path d="M550.156 638.841L550.156 660.841L572.156 660.841L572.156 638.841L550.156 638.841Z" fill="#EEEEEE"/>
<path d="M594.156 616.841L572.156 616.841L572.156 638.841L594.156 638.841L594.156 616.841Z" fill="#EEEEEE"/>
<path d="M550.156 616.841L550.156 638.841L572.156 638.841L572.156 616.841L550.156 616.841Z" fill="#EEEEEE"/>
<path d="M550.156 660.841L550.156 682.841L572.156 682.841L572.156 660.841L550.156 660.841Z" fill="#EEEEEE"/>
<path d="M594.156 616.841L594.156 638.841L616.156 638.841L616.156 616.841L594.156 616.841Z" fill="#EEEEEE"/>
<path d="M616.156 572.841L594.156 572.841L594.156 594.841L616.156 594.841L616.156 572.841Z" fill="#EEEEEE"/>
<path d="M550.156 572.841L572.156 572.841L572.156 550.841L550.156 550.841L550.156 572.841Z" fill="#EEEEEE"/>
<path d="M572.156 572.841L550.156 572.841L550.156 594.841L572.156 594.841L572.156 572.841Z" fill="#EEEEEE"/>
<path d="M506.156 682.841L506.156 704.841L528.156 704.841L528.156 682.841L506.156 682.841Z" fill="#EEEEEE"/>
<path d="M484.156 682.841L484.156 704.841L506.156 704.841L506.156 682.841L484.156 682.841Z" fill="#EEEEEE"/>
<path d="M484.156 660.841L484.156 682.841L506.156 682.841L506.156 660.841L484.156 660.841Z" fill="#EEEEEE"/>
<path d="M506.156 638.841L484.156 638.841L484.156 660.841L506.156 660.841L506.156 638.841Z" fill="#EEEEEE"/>
<path d="M528.156 660.841L550.156 660.841L550.156 638.841L528.156 638.841L528.156 660.841Z" fill="#EEEEEE"/>
<path d="M506.156 594.841L506.156 616.841L528.156 616.841L528.156 594.841L506.156 594.841Z" fill="#EEEEEE"/>
<path d="M528.156 572.841L506.156 572.841L506.156 594.841L528.156 594.841L528.156 572.841Z" fill="#EEEEEE"/>
<path d="M506.156 572.841L484.156 572.841L484.156 594.841L506.156 594.841L506.156 572.841Z" fill="#EEEEEE"/>
<path d="M506.156 528.841L484.156 528.841L484.156 550.841L506.156 550.841L506.156 528.841Z" fill="#EEEEEE"/>
<path d="M528.156 528.841L506.156 528.841L506.156 550.841L528.156 550.841L528.156 528.841Z" fill="#EEEEEE"/>
<path d="M506.156 506.841L506.156 528.841L528.156 528.841L528.156 506.841L506.156 506.841Z" fill="#EEEEEE"/>
<path d="M792.156 462.841L792.156 484.841L814.156 484.841L814.156 462.841L792.156 462.841Z" fill="#EEEEEE"/>
<path d="M770.156 462.841L770.156 484.841L792.156 484.841L792.156 462.841L770.156 462.841Z" fill="#EEEEEE"/>
<path d="M858.156 462.841L858.156 484.841L880.156 484.841L880.156 462.841L858.156 462.841Z" fill="#EEEEEE"/>
<path d="M902.156 506.841L902.156 528.841L924.156 528.841L924.156 506.841L902.156 506.841Z" fill="#EEEEEE"/>
<path d="M968.156 550.841L968.156 528.841L946.156 528.841L946.156 550.841L968.156 550.841Z" fill="#EEEEEE"/>
<path d="M836.156 418.841L814.156 418.841L814.156 440.841L836.156 440.841L836.156 418.841Z" fill="#EEEEEE"/>
<path d="M726.156 572.841L748.156 572.841L748.156 550.841L726.156 550.841L726.156 572.841Z" fill="#EEEEEE"/>
<path d="M704.156 572.841L726.156 572.841L726.156 550.841L704.156 550.841L704.156 572.841Z" fill="#EEEEEE"/>
<path d="M726.156 572.841L704.156 572.841L704.156 594.841L726.156 594.841L726.156 572.841Z" fill="#EEEEEE"/>
<path d="M770.156 616.841L748.156 616.841L748.156 638.841L770.156 638.841L770.156 616.841Z" fill="#EEEEEE"/>
<path d="M770.156 638.841L748.156 638.841L748.156 660.841L770.156 660.841L770.156 638.841Z" fill="#EEEEEE"/>
<path d="M704.156 594.841L704.156 616.841L726.156 616.841L726.156 594.841L704.156 594.841Z" fill="#EEEEEE"/>
<path d="M660.156 594.841L660.156 616.841L682.156 616.841L682.156 594.841L660.156 594.841Z" fill="#EEEEEE"/>
<path d="M660.156 572.841L638.156 572.841L638.156 594.841L660.156 594.841L660.156 572.841Z" fill="#EEEEEE"/>
</svg>
