<svg width="802" height="615" viewBox="0 0 802 615" fill="none" xmlns="http://www.w3.org/2000/svg">
<path d="M573.156 29.7358L562.156 10.6832L581.209 -0.316768L592.209 18.7358L573.156 29.7358Z" fill="#EEEEEE"/>
<path d="M430.156 -217.947L449.209 -228.947L438.209 -248L419.156 -237L430.156 -217.947Z" fill="#EEEEEE"/>
<path d="M468.261 -239.947L457.261 -259L438.209 -248L449.209 -228.947L468.261 -239.947Z" fill="#EEEEEE"/>
<path d="M479.261 -220.895L460.209 -209.895L471.209 -190.842L490.261 -201.842L479.261 -220.895Z" fill="#EEEEEE"/>
<path d="M449.209 -228.947L460.209 -209.895L479.261 -220.895L468.261 -239.947L449.209 -228.947Z" fill="#EEEEEE"/>
<path d="M463.156 -160.79L474.156 -141.737L493.209 -152.737L482.209 -171.79L463.156 -160.79Z" fill="#EEEEEE"/>
<path d="M512.261 -163.737L501.261 -182.79L482.209 -171.79L493.209 -152.737L512.261 -163.737Z" fill="#EEEEEE"/>
<path d="M512.261 -163.737L531.314 -174.737L520.314 -193.79L501.261 -182.79L512.261 -163.737Z" fill="#EEEEEE"/>
<path d="M550.366 -185.737L539.366 -204.79L520.314 -193.79L531.314 -174.737L550.366 -185.737Z" fill="#EEEEEE"/>
<path d="M539.366 -204.79L528.366 -223.842L509.314 -212.842L520.314 -193.79L539.366 -204.79Z" fill="#EEEEEE"/>
<path d="M506.366 -261.947L495.366 -281L476.314 -270L487.314 -250.947L506.366 -261.947Z" fill="#EEEEEE"/>
<path d="M517.366 -242.895L506.366 -261.947L487.314 -250.947L498.314 -231.895L517.366 -242.895Z" fill="#EEEEEE"/>
<path d="M525.419 -272.947L506.366 -261.947L517.366 -242.895L536.419 -253.895L525.419 -272.947Z" fill="#EEEEEE"/>
<path d="M555.472 -264.895L544.472 -283.947L525.419 -272.947L536.419 -253.895L555.472 -264.895Z" fill="#EEEEEE"/>
<path d="M566.472 -245.842L555.472 -264.895L536.419 -253.895L547.419 -234.842L566.472 -245.842Z" fill="#EEEEEE"/>
<path d="M504.209 -133.685L485.156 -122.685L496.156 -103.632L515.209 -114.632L504.209 -133.685Z" fill="#EEEEEE"/>
<path d="M523.261 -144.685L504.209 -133.685L515.209 -114.632L534.261 -125.632L523.261 -144.685Z" fill="#EEEEEE"/>
<path d="M561.366 -166.685L542.314 -155.685L553.314 -136.632L572.366 -147.632L561.366 -166.685Z" fill="#EEEEEE"/>
<path d="M564.314 -117.58L583.366 -128.58L572.366 -147.632L553.314 -136.632L564.314 -117.58Z" fill="#EEEEEE"/>
<path d="M594.366 -109.527L583.366 -128.58L564.314 -117.58L575.314 -98.527L594.366 -109.527Z" fill="#EEEEEE"/>
<path d="M586.314 -79.4744L575.314 -98.527L556.261 -87.527L567.261 -68.4744L586.314 -79.4744Z" fill="#EEEEEE"/>
<path d="M518.156 -65.527L529.156 -46.4744L548.209 -57.4744L537.209 -76.527L518.156 -65.527Z" fill="#EEEEEE"/>
<path d="M548.209 -57.4744L567.261 -68.4744L556.261 -87.527L537.209 -76.527L548.209 -57.4744Z" fill="#EEEEEE"/>
<path d="M580.419 -177.685L561.366 -166.685L572.366 -147.632L591.419 -158.632L580.419 -177.685Z" fill="#EEEEEE"/>
<path d="M654.472 -93.4219L643.472 -112.474L624.419 -101.474L635.419 -82.4219L654.472 -93.4219Z" fill="#EEEEEE"/>
<path d="M627.366 -52.3693L616.366 -71.4219L597.314 -60.4219L608.314 -41.3693L627.366 -52.3693Z" fill="#EEEEEE"/>
<path d="M635.419 -82.4219L616.366 -71.4219L627.366 -52.3693L646.419 -63.3693L635.419 -82.4219Z" fill="#EEEEEE"/>
<path d="M643.472 -112.474L632.472 -131.527L613.419 -120.527L624.419 -101.474L643.472 -112.474Z" fill="#EEEEEE"/>
<path d="M562.156 10.6832L581.209 -0.316768L570.209 -19.3693L551.156 -8.36933L562.156 10.6832Z" fill="#EEEEEE"/>
<path d="M540.156 -27.4219L551.156 -8.36933L570.209 -19.3693L559.209 -38.4219L540.156 -27.4219Z" fill="#EEEEEE"/>
<path d="M608.314 -41.3693L597.314 -60.4219L578.261 -49.4219L589.261 -30.3693L608.314 -41.3693Z" fill="#EEEEEE"/>
<path d="M611.261 7.73579L630.314 -3.26421L619.314 -22.3168L600.261 -11.3168L611.261 7.73579Z" fill="#EEEEEE"/>
<path d="M622.261 26.7884L641.314 15.7884L630.314 -3.26421L611.261 7.73579L622.261 26.7884Z" fill="#EEEEEE"/>
<path d="M633.261 45.8409L652.314 34.8409L641.314 15.7884L622.261 26.7884L633.261 45.8409Z" fill="#EEEEEE"/>
<path d="M614.209 56.8409L633.261 45.8409L622.261 26.7884L603.209 37.7883L614.209 56.8409Z" fill="#EEEEEE"/>
<path d="M595.156 67.8409L614.209 56.8409L603.209 37.7883L584.156 48.7883L595.156 67.8409Z" fill="#EEEEEE"/>
<path d="M649.366 -14.2642L638.366 -33.3168L619.314 -22.3168L630.314 -3.26421L649.366 -14.2642Z" fill="#EEEEEE"/>
<path d="M657.419 -44.3168L638.366 -33.3168L649.366 -14.2642L668.419 -25.2642L657.419 -44.3168Z" fill="#EEEEEE"/>
<path d="M671.366 23.8409L690.419 12.8409L679.419 -6.21165L660.366 4.78835L671.366 23.8409Z" fill="#EEEEEE"/>
<path d="M690.419 12.8409L709.472 1.84091L698.472 -17.2116L679.419 -6.21165L690.419 12.8409Z" fill="#EEEEEE"/>
<path d="M709.472 1.84091L728.524 -9.15909L717.524 -28.2116L698.472 -17.2116L709.472 1.84091Z" fill="#EEEEEE"/>
<path d="M706.524 -47.2642L687.472 -36.2642L698.472 -17.2116L717.524 -28.2116L706.524 -47.2642Z" fill="#EEEEEE"/>
<path d="M582.577 -305.947L571.577 -325L552.524 -314L563.524 -294.947L582.577 -305.947Z" fill="#EEEEEE"/>
<path d="M582.577 -305.947L563.524 -294.947L574.524 -275.895L593.577 -286.895L582.577 -305.947Z" fill="#EEEEEE"/>
<path d="M615.577 -248.79L604.577 -267.842L585.524 -256.842L596.524 -237.79L615.577 -248.79Z" fill="#EEEEEE"/>
<path d="M593.577 -286.895L574.524 -275.895L585.524 -256.842L604.577 -267.842L593.577 -286.895Z" fill="#EEEEEE"/>
<path d="M615.577 -248.79L596.524 -237.79L607.524 -218.737L626.577 -229.737L615.577 -248.79Z" fill="#EEEEEE"/>
<path d="M596.524 -237.79L577.472 -226.79L588.472 -207.737L607.524 -218.737L596.524 -237.79Z" fill="#EEEEEE"/>
<path d="M588.472 -207.737L577.472 -226.79L558.419 -215.79L569.419 -196.737L588.472 -207.737Z" fill="#EEEEEE"/>
<path d="M632.472 -131.527L651.524 -142.527L640.524 -161.58L621.472 -150.58L632.472 -131.527Z" fill="#EEEEEE"/>
<path d="M632.472 -131.527L621.472 -150.58L602.419 -139.58L613.419 -120.527L632.472 -131.527Z" fill="#EEEEEE"/>
<path d="M645.629 -240.737L664.682 -251.737L653.682 -270.79L634.629 -259.79L645.629 -240.737Z" fill="#EEEEEE"/>
<path d="M661.734 -300.842L650.734 -319.895L631.682 -308.895L642.682 -289.842L661.734 -300.842Z" fill="#EEEEEE"/>
<path d="M639.734 -338.947L620.682 -327.947L631.682 -308.895L650.734 -319.895L639.734 -338.947Z" fill="#EEEEEE"/>
<path d="M628.734 -358L609.682 -347L620.682 -327.947L639.734 -338.947L628.734 -358Z" fill="#EEEEEE"/>
<path d="M609.682 -347L590.629 -336L601.629 -316.947L620.682 -327.947L609.682 -347Z" fill="#EEEEEE"/>
<path d="M666.839 -380L647.787 -369L658.787 -349.947L677.839 -360.947L666.839 -380Z" fill="#EEEEEE"/>
<path d="M688.839 -341.895L677.839 -360.947L658.787 -349.947L669.787 -330.895L688.839 -341.895Z" fill="#EEEEEE"/>
<path d="M680.787 -311.842L699.839 -322.842L688.839 -341.895L669.787 -330.895L680.787 -311.842Z" fill="#EEEEEE"/>
<path d="M754.05 -404.947L743.05 -424L723.997 -413L734.997 -393.947L754.05 -404.947Z" fill="#EEEEEE"/>
<path d="M734.997 -393.947L745.997 -374.895L765.05 -385.895L754.05 -404.947L734.997 -393.947Z" fill="#EEEEEE"/>
<path d="M715.945 -382.947L726.945 -363.895L745.997 -374.895L734.997 -393.947L715.945 -382.947Z" fill="#EEEEEE"/>
<path d="M726.945 -363.895L715.945 -382.947L696.892 -371.947L707.892 -352.895L726.945 -363.895Z" fill="#EEEEEE"/>
<path d="M737.945 -344.842L726.945 -363.895L707.892 -352.895L718.892 -333.842L737.945 -344.842Z" fill="#EEEEEE"/>
<path d="M759.945 -306.737L748.945 -325.79L729.892 -314.79L740.892 -295.737L759.945 -306.737Z" fill="#EEEEEE"/>
<path d="M732.839 -265.685L751.892 -276.685L740.892 -295.737L721.839 -284.737L732.839 -265.685Z" fill="#EEEEEE"/>
<path d="M637.577 -210.685L618.524 -199.685L629.524 -180.632L648.577 -191.632L637.577 -210.685Z" fill="#EEEEEE"/>
<path d="M618.524 -199.685L599.472 -188.685L610.472 -169.632L629.524 -180.632L618.524 -199.685Z" fill="#EEEEEE"/>
<path d="M675.682 -232.685L656.629 -221.685L667.629 -202.632L686.682 -213.632L675.682 -232.685Z" fill="#EEEEEE"/>
<path d="M697.682 -194.58L678.629 -183.58L689.629 -164.527L708.682 -175.527L697.682 -194.58Z" fill="#EEEEEE"/>
<path d="M689.629 -164.527L678.629 -183.58L659.577 -172.58L670.577 -153.527L689.629 -164.527Z" fill="#EEEEEE"/>
<path d="M700.629 -145.474L689.629 -164.527L670.577 -153.527L681.577 -134.474L700.629 -145.474Z" fill="#EEEEEE"/>
<path d="M711.629 -126.422L692.577 -115.422L703.577 -96.3693L722.629 -107.369L711.629 -126.422Z" fill="#EEEEEE"/>
<path d="M744.629 -69.2642L733.629 -88.3168L714.577 -77.3168L725.577 -58.2642L744.629 -69.2642Z" fill="#EEEEEE"/>
<path d="M755.629 -50.2116L744.629 -69.2642L725.577 -58.2642L736.577 -39.2116L755.629 -50.2116Z" fill="#EEEEEE"/>
<path d="M747.577 -20.1591L766.629 -31.1591L755.629 -50.2116L736.577 -39.2116L747.577 -20.1591Z" fill="#EEEEEE"/>
<path d="M823.787 -64.1591L842.839 -75.1591L831.839 -94.2116L812.787 -83.2116L823.787 -64.1591Z" fill="#EEEEEE"/>
<path d="M804.734 -53.1591L823.787 -64.1591L812.787 -83.2116L793.734 -72.2116L804.734 -53.1591Z" fill="#EEEEEE"/>
<path d="M785.682 -42.1591L804.734 -53.1591L793.734 -72.2116L774.682 -61.2116L785.682 -42.1591Z" fill="#EEEEEE"/>
<path d="M774.682 -61.2116L793.734 -72.2116L782.734 -91.2642L763.682 -80.2642L774.682 -61.2116Z" fill="#EEEEEE"/>
<path d="M771.734 -110.317L760.734 -129.369L741.682 -118.369L752.682 -99.3168L771.734 -110.317Z" fill="#EEEEEE"/>
<path d="M771.734 -110.317L790.787 -121.317L779.787 -140.369L760.734 -129.369L771.734 -110.317Z" fill="#EEEEEE"/>
<path d="M790.787 -121.317L809.839 -132.317L798.839 -151.369L779.787 -140.369L790.787 -121.317Z" fill="#EEEEEE"/>
<path d="M801.787 -102.264L820.839 -113.264L809.839 -132.317L790.787 -121.317L801.787 -102.264Z" fill="#EEEEEE"/>
<path d="M839.892 -124.264L828.892 -143.317L809.839 -132.317L820.839 -113.264L839.892 -124.264Z" fill="#EEEEEE"/>
<path d="M858.945 -135.264L847.945 -154.317L828.892 -143.317L839.892 -124.264L858.945 -135.264Z" fill="#EEEEEE"/>
<path d="M869.945 -116.212L858.945 -135.264L839.892 -124.264L850.892 -105.212L869.945 -116.212Z" fill="#EEEEEE"/>
<path d="M861.892 -86.1591L880.945 -97.1591L869.945 -116.212L850.892 -105.212L861.892 -86.1591Z" fill="#EEEEEE"/>
<path d="M749.734 -148.422L730.682 -137.422L741.682 -118.369L760.734 -129.369L749.734 -148.422Z" fill="#EEEEEE"/>
<path d="M738.734 -167.474L719.682 -156.474L730.682 -137.422L749.734 -148.422L738.734 -167.474Z" fill="#EEEEEE"/>
<path d="M735.787 -216.58L716.734 -205.58L727.734 -186.527L746.787 -197.527L735.787 -216.58Z" fill="#EEEEEE"/>
<path d="M776.839 -189.474L757.787 -178.474L768.787 -159.422L787.839 -170.422L776.839 -189.474Z" fill="#EEEEEE"/>
<path d="M765.839 -208.527L746.787 -197.527L757.787 -178.474L776.839 -189.474L765.839 -208.527Z" fill="#EEEEEE"/>
<path d="M765.839 -208.527L754.839 -227.58L735.787 -216.58L746.787 -197.527L765.839 -208.527Z" fill="#EEEEEE"/>
<path d="M773.892 -238.58L762.892 -257.632L743.839 -246.632L754.839 -227.58L773.892 -238.58Z" fill="#EEEEEE"/>
<path d="M773.892 -238.58L754.839 -227.58L765.839 -208.527L784.892 -219.527L773.892 -238.58Z" fill="#EEEEEE"/>
<path d="M908.05 -138.212L897.05 -157.264L877.997 -146.264L888.997 -127.212L908.05 -138.212Z" fill="#EEEEEE"/>
<path d="M908.05 -138.212L927.102 -149.212L916.102 -168.264L897.05 -157.264L908.05 -138.212Z" fill="#EEEEEE"/>
<path d="M919.05 -119.159L938.102 -130.159L927.102 -149.212L908.05 -138.212L919.05 -119.159Z" fill="#EEEEEE"/>
<path d="M897.05 -157.264L886.05 -176.317L866.997 -165.317L877.997 -146.264L897.05 -157.264Z" fill="#EEEEEE"/>
<path d="M875.05 -195.369L855.997 -184.369L866.997 -165.317L886.05 -176.317L875.05 -195.369Z" fill="#EEEEEE"/>
<path d="M943.207 -209.317L924.155 -198.317L935.155 -179.264L954.207 -190.264L943.207 -209.317Z" fill="#EEEEEE"/>
<path d="M946.155 -160.212L965.207 -171.212L954.207 -190.264L935.155 -179.264L946.155 -160.212Z" fill="#EEEEEE"/>
<path d="M995.26 -163.159L1014.31 -174.159L1003.31 -193.212L984.26 -182.212L995.26 -163.159Z" fill="#EEEEEE"/>
<path d="M992.312 -212.264L973.26 -201.264L984.26 -182.212L1003.31 -193.212L992.312 -212.264Z" fill="#EEEEEE"/>
<path d="M992.312 -212.264L981.312 -231.317L962.26 -220.317L973.26 -201.264L992.312 -212.264Z" fill="#EEEEEE"/>
<path d="M962.26 -220.317L981.312 -231.317L970.312 -250.369L951.26 -239.369L962.26 -220.317Z" fill="#EEEEEE"/>
<path d="M970.312 -250.369L959.312 -269.422L940.26 -258.422L951.26 -239.369L970.312 -250.369Z" fill="#EEEEEE"/>
<path d="M959.312 -269.422L948.312 -288.474L929.26 -277.474L940.26 -258.422L959.312 -269.422Z" fill="#EEEEEE"/>
<path d="M831.05 -271.58L820.05 -290.632L800.997 -279.632L811.997 -260.58L831.05 -271.58Z" fill="#EEEEEE"/>
<path d="M781.945 -268.632L792.945 -249.58L811.997 -260.58L800.997 -279.632L781.945 -268.632Z" fill="#EEEEEE"/>
<path d="M831.05 -271.58L811.997 -260.58L822.997 -241.527L842.05 -252.527L831.05 -271.58Z" fill="#EEEEEE"/>
<path d="M833.997 -222.474L853.05 -233.474L842.05 -252.527L822.997 -241.527L833.997 -222.474Z" fill="#EEEEEE"/>
<path d="M825.945 -192.422L844.997 -203.422L833.997 -222.474L814.945 -211.474L825.945 -192.422Z" fill="#EEEEEE"/>
<path d="M825.945 -192.422L814.945 -211.474L795.892 -200.474L806.892 -181.422L825.945 -192.422Z" fill="#EEEEEE"/>
<path d="M836.945 -173.369L825.945 -192.422L806.892 -181.422L817.892 -162.369L836.945 -173.369Z" fill="#EEEEEE"/>
<path d="M803.945 -230.527L814.945 -211.474L833.997 -222.474L822.997 -241.527L803.945 -230.527Z" fill="#EEEEEE"/>
<path d="M894.102 -206.369L883.102 -225.422L864.05 -214.422L875.05 -195.369L894.102 -206.369Z" fill="#EEEEEE"/>
<path d="M886.05 -176.317L905.102 -187.317L894.102 -206.369L875.05 -195.369L886.05 -176.317Z" fill="#EEEEEE"/>
<path d="M913.155 -217.369L902.155 -236.422L883.102 -225.422L894.102 -206.369L913.155 -217.369Z" fill="#EEEEEE"/>
<path d="M921.207 -247.422L902.155 -236.422L913.155 -217.369L932.207 -228.369L921.207 -247.422Z" fill="#EEEEEE"/>
<path d="M932.207 -228.369L913.155 -217.369L924.155 -198.317L943.207 -209.317L932.207 -228.369Z" fill="#EEEEEE"/>
<path d="M850.102 -282.58L869.155 -293.58L858.155 -312.632L839.102 -301.632L850.102 -282.58Z" fill="#EEEEEE"/>
<path d="M880.155 -274.527L869.155 -293.58L850.102 -282.58L861.102 -263.527L880.155 -274.527Z" fill="#EEEEEE"/>
<path d="M891.155 -255.474L880.155 -274.527L861.102 -263.527L872.102 -244.474L891.155 -255.474Z" fill="#EEEEEE"/>
<path d="M814.155 -388.842L803.155 -407.895L784.102 -396.895L795.102 -377.842L814.155 -388.842Z" fill="#EEEEEE"/>
<path d="M787.05 -347.79L806.102 -358.79L795.102 -377.842L776.05 -366.842L787.05 -347.79Z" fill="#EEEEEE"/>
<path d="M825.155 -369.79L814.155 -388.842L795.102 -377.842L806.102 -358.79L825.155 -369.79Z" fill="#EEEEEE"/>
<path d="M803.155 -407.895L792.155 -426.947L773.102 -415.947L784.102 -396.895L803.155 -407.895Z" fill="#EEEEEE"/>
<path d="M787.05 -347.79L776.05 -366.842L756.997 -355.842L767.997 -336.79L787.05 -347.79Z" fill="#EEEEEE"/>
<path d="M789.997 -298.685L809.05 -309.685L798.05 -328.737L778.997 -317.737L789.997 -298.685Z" fill="#EEEEEE"/>
<path d="M847.155 -331.685L828.102 -320.685L839.102 -301.632L858.155 -312.632L847.155 -331.685Z" fill="#EEEEEE"/>
<path d="M828.102 -320.685L847.155 -331.685L836.155 -350.737L817.102 -339.737L828.102 -320.685Z" fill="#EEEEEE"/>
<path d="M830.26 -448.947L819.26 -468L800.207 -457L811.207 -437.947L830.26 -448.947Z" fill="#EEEEEE"/>
<path d="M849.312 -459.947L838.312 -479L819.26 -468L830.26 -448.947L849.312 -459.947Z" fill="#EEEEEE"/>
<path d="M860.312 -440.895L849.312 -459.947L830.26 -448.947L841.26 -429.895L860.312 -440.895Z" fill="#EEEEEE"/>
<path d="M852.26 -410.842L871.312 -421.842L860.312 -440.895L841.26 -429.895L852.26 -410.842Z" fill="#EEEEEE"/>
<path d="M822.207 -418.895L803.155 -407.895L814.155 -388.842L833.207 -399.842L822.207 -418.895Z" fill="#EEEEEE"/>
<path d="M874.26 -372.737L863.26 -391.79L844.207 -380.79L855.207 -361.737L874.26 -372.737Z" fill="#EEEEEE"/>
<path d="M866.207 -342.685L885.26 -353.685L874.26 -372.737L855.207 -361.737L866.207 -342.685Z" fill="#EEEEEE"/>
<path d="M885.26 -353.685L904.312 -364.685L893.312 -383.737L874.26 -372.737L885.26 -353.685Z" fill="#EEEEEE"/>
<path d="M907.26 -315.58L926.312 -326.58L915.312 -345.632L896.26 -334.632L907.26 -315.58Z" fill="#EEEEEE"/>
<path d="M888.207 -304.58L907.26 -315.58L896.26 -334.632L877.207 -323.632L888.207 -304.58Z" fill="#EEEEEE"/>
<path d="M918.26 -296.527L907.26 -315.58L888.207 -304.58L899.207 -285.527L918.26 -296.527Z" fill="#EEEEEE"/>
<path d="M692.577 -115.422L681.577 -134.474L662.524 -123.474L673.524 -104.422L692.577 -115.422Z" fill="#EEEEEE"/>
<path d="M711.629 -126.422L700.629 -145.474L681.577 -134.474L692.577 -115.422L711.629 -126.422Z" fill="#EEEEEE"/>
<path d="M635.419 -82.4219L624.419 -101.474L605.366 -90.4744L616.366 -71.4219L635.419 -82.4219Z" fill="#EEEEEE"/>
<path d="M575.314 -98.527L564.314 -117.58L545.261 -106.58L556.261 -87.527L575.314 -98.527Z" fill="#EEEEEE"/>
<path d="M496.156 -103.632L507.156 -84.5796L526.209 -95.5796L515.209 -114.632L496.156 -103.632Z" fill="#EEEEEE"/>
<path d="M676.472 -55.3168L695.524 -66.3168L684.524 -85.3693L665.472 -74.3693L676.472 -55.3168Z" fill="#EEEEEE"/>
<path d="M694.734 -243.685L675.682 -232.685L686.682 -213.632L705.734 -224.632L694.734 -243.685Z" fill="#EEEEEE"/>
<path d="M713.787 -254.685L694.734 -243.685L705.734 -224.632L724.787 -235.632L713.787 -254.685Z" fill="#EEEEEE"/>
<path d="M694.734 -243.685L713.787 -254.685L702.787 -273.737L683.734 -262.737L694.734 -243.685Z" fill="#EEEEEE"/>
<path d="M634.629 -259.79L653.682 -270.79L642.682 -289.842L623.629 -278.842L634.629 -259.79Z" fill="#EEEEEE"/>
<path d="M623.629 -278.842L642.682 -289.842L631.682 -308.895L612.629 -297.895L623.629 -278.842Z" fill="#EEEEEE"/>
<path d="M702.787 -273.737L691.787 -292.79L672.734 -281.79L683.734 -262.737L702.787 -273.737Z" fill="#EEEEEE"/>
<path d="M740.892 -295.737L729.892 -314.79L710.839 -303.79L721.839 -284.737L740.892 -295.737Z" fill="#EEEEEE"/>
<path d="M751.892 -276.685L770.945 -287.685L759.945 -306.737L740.892 -295.737L751.892 -276.685Z" fill="#EEEEEE"/>
<path d="M441.156 -198.895L452.156 -179.842L433.104 -168.842L422.104 -187.895L441.156 -198.895Z" fill="#EEEEEE"/>
<path d="M584.156 48.7883L565.104 59.7883L576.104 78.8408L595.156 67.8409L584.156 48.7883Z" fill="#EEEEEE"/>
<path d="M546.051 70.7883L557.051 89.8409L576.104 78.8408L565.104 59.7883L546.051 70.7883Z" fill="#EEEEEE"/>
<path d="M535.051 51.7357L554.104 40.7357L543.104 21.6832L524.051 32.6832L535.051 51.7357Z" fill="#EEEEEE"/>
<path d="M565.104 59.7883L554.104 40.7357L535.051 51.7357L546.051 70.7883L565.104 59.7883Z" fill="#EEEEEE"/>
<path d="M551.156 -8.36933L540.156 -27.4219L521.104 -16.4219L532.104 2.63062L551.156 -8.36933Z" fill="#EEEEEE"/>
<path d="M502.051 -5.42194L513.051 13.6306L532.104 2.63062L521.104 -16.4219L502.051 -5.42194Z" fill="#EEEEEE"/>
<path d="M502.051 -5.42194L482.999 5.57806L493.999 24.6306L513.051 13.6306L502.051 -5.42194Z" fill="#EEEEEE"/>
<path d="M463.946 16.5781L474.946 35.6306L493.999 24.6306L482.999 5.57806L463.946 16.5781Z" fill="#EEEEEE"/>
<path d="M474.946 35.6306L485.946 54.6832L504.999 43.6832L493.999 24.6306L474.946 35.6306Z" fill="#EEEEEE"/>
<path d="M507.946 92.7883L518.946 111.841L537.999 100.841L526.999 81.7883L507.946 92.7883Z" fill="#EEEEEE"/>
<path d="M496.946 73.7357L507.946 92.7883L526.999 81.7883L515.999 62.7357L496.946 73.7357Z" fill="#EEEEEE"/>
<path d="M488.893 103.788L507.946 92.7883L496.946 73.7357L477.893 84.7358L488.893 103.788Z" fill="#EEEEEE"/>
<path d="M458.841 95.7358L469.841 114.788L488.893 103.788L477.893 84.7358L458.841 95.7358Z" fill="#EEEEEE"/>
<path d="M447.841 76.6832L458.841 95.7358L477.893 84.7358L466.893 65.6832L447.841 76.6832Z" fill="#EEEEEE"/>
<path d="M510.104 -35.4745L529.156 -46.4744L518.156 -65.527L499.104 -54.5271L510.104 -35.4745Z" fill="#EEEEEE"/>
<path d="M491.051 -24.4745L510.104 -35.4745L499.104 -54.5271L480.051 -43.5271L491.051 -24.4745Z" fill="#EEEEEE"/>
<path d="M452.946 -2.4745L471.999 -13.4745L460.999 -32.5271L441.946 -21.5271L452.946 -2.4745Z" fill="#EEEEEE"/>
<path d="M449.999 -51.5796L430.946 -40.5796L441.946 -21.5271L460.999 -32.5271L449.999 -51.5796Z" fill="#EEEEEE"/>
<path d="M419.946 -59.6321L430.946 -40.5796L449.999 -51.5796L438.999 -70.6321L419.946 -59.6321Z" fill="#EEEEEE"/>
<path d="M427.999 -89.6847L438.999 -70.6321L458.051 -81.6321L447.051 -100.685L427.999 -89.6847Z" fill="#EEEEEE"/>
<path d="M496.156 -103.632L485.156 -122.685L466.104 -111.685L477.104 -92.6321L496.156 -103.632Z" fill="#EEEEEE"/>
<path d="M466.104 -111.685L447.051 -100.685L458.051 -81.6321L477.104 -92.6321L466.104 -111.685Z" fill="#EEEEEE"/>
<path d="M433.893 8.52553L452.946 -2.4745L441.946 -21.5271L422.893 -10.527L433.893 8.52553Z" fill="#EEEEEE"/>
<path d="M359.841 -75.7373L370.841 -56.6847L389.893 -67.6847L378.893 -86.7373L359.841 -75.7373Z" fill="#EEEEEE"/>
<path d="M386.946 -116.79L397.946 -97.7373L416.999 -108.737L405.999 -127.79L386.946 -116.79Z" fill="#EEEEEE"/>
<path d="M378.893 -86.7373L397.946 -97.7373L386.946 -116.79L367.893 -105.79L378.893 -86.7373Z" fill="#EEEEEE"/>
<path d="M370.841 -56.6847L381.841 -37.6321L400.893 -48.6321L389.893 -67.6847L370.841 -56.6847Z" fill="#EEEEEE"/>
<path d="M452.156 -179.842L433.104 -168.842L444.104 -149.79L463.156 -160.79L452.156 -179.842Z" fill="#EEEEEE"/>
<path d="M474.156 -141.737L463.156 -160.79L444.104 -149.79L455.104 -130.737L474.156 -141.737Z" fill="#EEEEEE"/>
<path d="M405.999 -127.79L416.999 -108.737L436.051 -119.737L425.051 -138.79L405.999 -127.79Z" fill="#EEEEEE"/>
<path d="M403.051 -176.895L383.999 -165.895L394.999 -146.842L414.051 -157.842L403.051 -176.895Z" fill="#EEEEEE"/>
<path d="M392.051 -195.947L372.999 -184.947L383.999 -165.895L403.051 -176.895L392.051 -195.947Z" fill="#EEEEEE"/>
<path d="M381.051 -215L361.999 -204L372.999 -184.947L392.051 -195.947L381.051 -215Z" fill="#EEEEEE"/>
<path d="M400.104 -226L381.051 -215L392.051 -195.947L411.104 -206.947L400.104 -226Z" fill="#EEEEEE"/>
<path d="M419.156 -237L400.104 -226L411.104 -206.947L430.156 -217.947L419.156 -237Z" fill="#EEEEEE"/>
<path d="M364.946 -154.895L375.946 -135.842L394.999 -146.842L383.999 -165.895L364.946 -154.895Z" fill="#EEEEEE"/>
<path d="M356.893 -124.842L375.946 -135.842L364.946 -154.895L345.893 -143.895L356.893 -124.842Z" fill="#EEEEEE"/>
<path d="M342.946 -193L323.893 -182L334.893 -162.948L353.946 -173.947L342.946 -193Z" fill="#EEEEEE"/>
<path d="M323.893 -182L304.841 -171L315.841 -151.948L334.893 -162.948L323.893 -182Z" fill="#EEEEEE"/>
<path d="M304.841 -171L285.788 -160L296.788 -140.948L315.841 -151.948L304.841 -171Z" fill="#EEEEEE"/>
<path d="M307.788 -121.895L326.841 -132.895L315.841 -151.948L296.788 -140.948L307.788 -121.895Z" fill="#EEEEEE"/>
<path d="M431.736 136.788L442.736 155.841L461.788 144.841L450.788 125.788L431.736 136.788Z" fill="#EEEEEE"/>
<path d="M431.736 136.788L450.788 125.788L439.788 106.736L420.736 117.736L431.736 136.788Z" fill="#EEEEEE"/>
<path d="M398.736 79.6306L409.736 98.6832L428.788 87.6832L417.788 68.6306L398.736 79.6306Z" fill="#EEEEEE"/>
<path d="M420.736 117.736L439.788 106.736L428.788 87.6832L409.736 98.6832L420.736 117.736Z" fill="#EEEEEE"/>
<path d="M398.736 79.6306L417.788 68.6306L406.788 49.5781L387.736 60.5781L398.736 79.6306Z" fill="#EEEEEE"/>
<path d="M417.788 68.6306L436.841 57.6306L425.841 38.5781L406.788 49.5781L417.788 68.6306Z" fill="#EEEEEE"/>
<path d="M425.841 38.5781L436.841 57.6306L455.893 46.6306L444.893 27.5781L425.841 38.5781Z" fill="#EEEEEE"/>
<path d="M381.841 -37.6321L362.788 -26.6322L373.788 -7.57959L392.841 -18.5796L381.841 -37.6321Z" fill="#EEEEEE"/>
<path d="M381.841 -37.6321L392.841 -18.5796L411.893 -29.5796L400.893 -48.6321L381.841 -37.6321Z" fill="#EEEEEE"/>
<path d="M368.683 71.5781L349.631 82.5781L360.631 101.631L379.683 90.6306L368.683 71.5781Z" fill="#EEEEEE"/>
<path d="M352.578 131.683L363.578 150.736L382.631 139.736L371.631 120.683L352.578 131.683Z" fill="#EEEEEE"/>
<path d="M374.578 169.788L393.631 158.788L382.631 139.736L363.578 150.736L374.578 169.788Z" fill="#EEEEEE"/>
<path d="M385.578 188.841L404.631 177.841L393.631 158.788L374.578 169.788L385.578 188.841Z" fill="#EEEEEE"/>
<path d="M404.631 177.841L423.683 166.841L412.683 147.788L393.631 158.788L404.631 177.841Z" fill="#EEEEEE"/>
<path d="M347.473 210.841L366.525 199.841L355.525 180.788L336.473 191.788L347.473 210.841Z" fill="#EEEEEE"/>
<path d="M325.473 172.736L336.473 191.788L355.525 180.788L344.525 161.736L325.473 172.736Z" fill="#EEEEEE"/>
<path d="M333.525 142.683L314.473 153.683L325.473 172.736L344.525 161.736L333.525 142.683Z" fill="#EEEEEE"/>
<path d="M260.263 235.788L271.263 254.841L290.315 243.841L279.315 224.788L260.263 235.788Z" fill="#EEEEEE"/>
<path d="M279.315 224.788L268.315 205.736L249.263 216.736L260.263 235.788L279.315 224.788Z" fill="#EEEEEE"/>
<path d="M298.368 213.788L287.368 194.736L268.315 205.736L279.315 224.788L298.368 213.788Z" fill="#EEEEEE"/>
<path d="M287.368 194.736L298.368 213.788L317.42 202.788L306.42 183.736L287.368 194.736Z" fill="#EEEEEE"/>
<path d="M276.368 175.683L287.368 194.736L306.42 183.736L295.42 164.683L276.368 175.683Z" fill="#EEEEEE"/>
<path d="M254.368 137.578L265.368 156.631L284.42 145.631L273.42 126.578L254.368 137.578Z" fill="#EEEEEE"/>
<path d="M281.473 96.5255L262.42 107.526L273.42 126.578L292.473 115.578L281.473 96.5255Z" fill="#EEEEEE"/>
<path d="M376.736 41.5255L395.788 30.5255L384.788 11.473L365.736 22.473L376.736 41.5255Z" fill="#EEEEEE"/>
<path d="M395.788 30.5255L414.841 19.5255L403.841 0.472967L384.788 11.473L395.788 30.5255Z" fill="#EEEEEE"/>
<path d="M338.631 63.5255L357.683 52.5255L346.683 33.473L327.631 44.473L338.631 63.5255Z" fill="#EEEEEE"/>
<path d="M316.631 25.4204L335.683 14.4204L324.683 -4.63215L305.631 6.36785L316.631 25.4204Z" fill="#EEEEEE"/>
<path d="M324.683 -4.63215L335.683 14.4204L354.736 3.42041L343.736 -15.6322L324.683 -4.63215Z" fill="#EEEEEE"/>
<path d="M313.683 -23.6847L324.683 -4.63215L343.736 -15.6322L332.736 -34.6847L313.683 -23.6847Z" fill="#EEEEEE"/>
<path d="M302.683 -42.7373L321.736 -53.7373L310.736 -72.7898L291.683 -61.7898L302.683 -42.7373Z" fill="#EEEEEE"/>
<path d="M269.683 -99.8949L280.683 -80.8424L299.736 -91.8424L288.736 -110.895L269.683 -99.8949Z" fill="#EEEEEE"/>
<path d="M258.683 -118.948L269.683 -99.8949L288.736 -110.895L277.736 -129.948L258.683 -118.948Z" fill="#EEEEEE"/>
<path d="M266.736 -149L247.683 -138L258.683 -118.948L277.736 -129.948L266.736 -149Z" fill="#EEEEEE"/>
<path d="M190.526 -105L171.473 -94.0001L182.473 -74.9475L201.525 -85.9475L190.526 -105Z" fill="#EEEEEE"/>
<path d="M209.578 -116L190.526 -105L201.525 -85.9475L220.578 -96.9475L209.578 -116Z" fill="#EEEEEE"/>
<path d="M228.631 -127L209.578 -116L220.578 -96.9475L239.631 -107.948L228.631 -127Z" fill="#EEEEEE"/>
<path d="M239.631 -107.948L220.578 -96.9475L231.578 -77.8949L250.631 -88.8949L239.631 -107.948Z" fill="#EEEEEE"/>
<path d="M242.578 -58.8424L253.578 -39.7898L272.631 -50.7898L261.631 -69.8424L242.578 -58.8424Z" fill="#EEEEEE"/>
<path d="M242.578 -58.8424L223.525 -47.8424L234.525 -28.7898L253.578 -39.7898L242.578 -58.8424Z" fill="#EEEEEE"/>
<path d="M223.525 -47.8424L204.473 -36.8424L215.473 -17.7898L234.525 -28.7898L223.525 -47.8424Z" fill="#EEEEEE"/>
<path d="M212.525 -66.8949L193.473 -55.8949L204.473 -36.8424L223.525 -47.8424L212.525 -66.8949Z" fill="#EEEEEE"/>
<path d="M174.42 -44.8949L185.42 -25.8424L204.473 -36.8424L193.473 -55.8949L174.42 -44.8949Z" fill="#EEEEEE"/>
<path d="M155.368 -33.8949L166.368 -14.8424L185.42 -25.8424L174.42 -44.8949L155.368 -33.8949Z" fill="#EEEEEE"/>
<path d="M144.368 -52.9475L155.368 -33.8949L174.42 -44.8949L163.42 -63.9475L144.368 -52.9475Z" fill="#EEEEEE"/>
<path d="M152.42 -83.0001L133.368 -72.0001L144.368 -52.9475L163.42 -63.9475L152.42 -83.0001Z" fill="#EEEEEE"/>
<path d="M264.578 -20.7373L283.631 -31.7373L272.631 -50.7898L253.578 -39.7898L264.578 -20.7373Z" fill="#EEEEEE"/>
<path d="M275.578 -1.68471L294.631 -12.6847L283.631 -31.7373L264.578 -20.7373L275.578 -1.68471Z" fill="#EEEEEE"/>
<path d="M278.525 47.4204L297.578 36.4204L286.578 17.3678L267.525 28.3678L278.525 47.4204Z" fill="#EEEEEE"/>
<path d="M237.473 20.3153L256.525 9.31529L245.525 -9.73727L226.473 1.26273L237.473 20.3153Z" fill="#EEEEEE"/>
<path d="M248.473 39.3678L267.525 28.3678L256.525 9.31529L237.473 20.3153L248.473 39.3678Z" fill="#EEEEEE"/>
<path d="M248.473 39.3678L259.473 58.4204L278.525 47.4204L267.525 28.3678L248.473 39.3678Z" fill="#EEEEEE"/>
<path d="M240.42 69.4204L251.42 88.473L270.473 77.473L259.473 58.4204L240.42 69.4204Z" fill="#EEEEEE"/>
<path d="M240.42 69.4204L259.473 58.4204L248.473 39.3678L229.42 50.3678L240.42 69.4204Z" fill="#EEEEEE"/>
<path d="M106.263 -30.9475L117.263 -11.8949L136.315 -22.8949L125.315 -41.9475L106.263 -30.9475Z" fill="#EEEEEE"/>
<path d="M106.263 -30.9475L87.2101 -19.9475L98.2101 -0.894951L117.263 -11.8949L106.263 -30.9475Z" fill="#EEEEEE"/>
<path d="M95.2627 -50.0001L76.2101 -39.0001L87.2101 -19.9475L106.263 -30.9475L95.2627 -50.0001Z" fill="#EEEEEE"/>
<path d="M117.263 -11.8949L128.263 7.15761L147.315 -3.84239L136.315 -22.8949L117.263 -11.8949Z" fill="#EEEEEE"/>
<path d="M139.263 26.2102L158.315 15.2102L147.315 -3.84239L128.263 7.15761L139.263 26.2102Z" fill="#EEEEEE"/>
<path d="M71.105 40.1576L90.1576 29.1576L79.1576 10.105L60.105 21.105L71.105 40.1576Z" fill="#EEEEEE"/>
<path d="M68.1576 -8.94751L49.105 2.05249L60.105 21.105L79.1576 10.105L68.1576 -8.94751Z" fill="#EEEEEE"/>
<path d="M19.0525 -6.00007L-8.53538e-05 4.99993L10.9999 24.0525L30.0525 13.0525L19.0525 -6.00007Z" fill="#EEEEEE"/>
<path d="M21.9999 43.105L41.0525 32.105L30.0525 13.0525L10.9999 24.0525L21.9999 43.105Z" fill="#EEEEEE"/>
<path d="M21.9999 43.105L32.9999 62.1576L52.0525 51.1576L41.0525 32.105L21.9999 43.105Z" fill="#EEEEEE"/>
<path d="M52.0525 51.1576L32.9999 62.1576L43.9999 81.2102L63.0525 70.2102L52.0525 51.1576Z" fill="#EEEEEE"/>
<path d="M43.9999 81.2102L54.9999 100.263L74.0525 89.2627L63.0525 70.2102L43.9999 81.2102Z" fill="#EEEEEE"/>
<path d="M54.9999 100.263L65.9999 119.315L85.0525 108.315L74.0525 89.2627L54.9999 100.263Z" fill="#EEEEEE"/>
<path d="M183.263 102.42L194.263 121.473L213.315 110.473L202.315 91.4204L183.263 102.42Z" fill="#EEEEEE"/>
<path d="M232.368 99.473L221.368 80.4204L202.315 91.4204L213.315 110.473L232.368 99.473Z" fill="#EEEEEE"/>
<path d="M183.263 102.42L202.315 91.4204L191.315 72.3678L172.263 83.3678L183.263 102.42Z" fill="#EEEEEE"/>
<path d="M180.315 53.3153L161.263 64.3153L172.263 83.3678L191.315 72.3678L180.315 53.3153Z" fill="#EEEEEE"/>
<path d="M188.368 23.2627L169.315 34.2627L180.315 53.3153L199.368 42.3153L188.368 23.2627Z" fill="#EEEEEE"/>
<path d="M188.368 23.2627L199.368 42.3153L218.42 31.3153L207.42 12.2627L188.368 23.2627Z" fill="#EEEEEE"/>
<path d="M177.368 4.21017L188.368 23.2627L207.42 12.2627L196.42 -6.78983L177.368 4.21017Z" fill="#EEEEEE"/>
<path d="M210.368 61.3678L199.368 42.3153L180.315 53.3153L191.315 72.3678L210.368 61.3678Z" fill="#EEEEEE"/>
<path d="M120.21 37.2102L131.21 56.2627L150.263 45.2627L139.263 26.2102L120.21 37.2102Z" fill="#EEEEEE"/>
<path d="M128.263 7.15761L109.21 18.1576L120.21 37.2102L139.263 26.2102L128.263 7.15761Z" fill="#EEEEEE"/>
<path d="M101.158 48.2102L112.158 67.2627L131.21 56.2627L120.21 37.2102L101.158 48.2102Z" fill="#EEEEEE"/>
<path d="M93.105 78.2627L112.158 67.2627L101.158 48.2102L82.105 59.2102L93.105 78.2627Z" fill="#EEEEEE"/>
<path d="M82.105 59.2102L101.158 48.2102L90.1576 29.1576L71.105 40.1576L82.105 59.2102Z" fill="#EEEEEE"/>
<path d="M164.21 113.42L145.158 124.42L156.158 143.473L175.21 132.473L164.21 113.42Z" fill="#EEEEEE"/>
<path d="M134.158 105.368L145.158 124.42L164.21 113.42L153.21 94.3678L134.158 105.368Z" fill="#EEEEEE"/>
<path d="M123.158 86.3153L134.158 105.368L153.21 94.3678L142.21 75.3153L123.158 86.3153Z" fill="#EEEEEE"/>
<path d="M200.158 219.683L211.158 238.736L230.21 227.736L219.21 208.683L200.158 219.683Z" fill="#EEEEEE"/>
<path d="M227.263 178.631L208.21 189.631L219.21 208.683L238.263 197.683L227.263 178.631Z" fill="#EEEEEE"/>
<path d="M189.158 200.631L200.158 219.683L219.21 208.683L208.21 189.631L189.158 200.631Z" fill="#EEEEEE"/>
<path d="M211.158 238.736L222.158 257.788L241.21 246.788L230.21 227.736L211.158 238.736Z" fill="#EEEEEE"/>
<path d="M227.263 178.631L238.263 197.683L257.315 186.683L246.315 167.631L227.263 178.631Z" fill="#EEEEEE"/>
<path d="M224.315 129.526L205.263 140.526L216.263 159.578L235.315 148.578L224.315 129.526Z" fill="#EEEEEE"/>
<path d="M167.158 162.526L186.21 151.526L175.21 132.473L156.158 143.473L167.158 162.526Z" fill="#EEEEEE"/>
<path d="M186.21 151.526L167.158 162.526L178.158 181.578L197.21 170.578L186.21 151.526Z" fill="#EEEEEE"/>
<path d="M184.052 279.788L195.052 298.841L214.105 287.841L203.105 268.788L184.052 279.788Z" fill="#EEEEEE"/>
<path d="M165 290.788L176 309.841L195.052 298.841L184.052 279.788L165 290.788Z" fill="#EEEEEE"/>
<path d="M154 271.736L165 290.788L184.052 279.788L173.052 260.736L154 271.736Z" fill="#EEEEEE"/>
<path d="M162.052 241.683L143 252.683L154 271.736L173.052 260.736L162.052 241.683Z" fill="#EEEEEE"/>
<path d="M192.105 249.736L211.158 238.736L200.158 219.683L181.105 230.683L192.105 249.736Z" fill="#EEEEEE"/>
<path d="M140.052 203.578L151.052 222.631L170.105 211.631L159.105 192.578L140.052 203.578Z" fill="#EEEEEE"/>
<path d="M148.105 173.526L129.052 184.526L140.052 203.578L159.105 192.578L148.105 173.526Z" fill="#EEEEEE"/>
<path d="M129.052 184.526L110 195.526L121 214.578L140.052 203.578L129.052 184.526Z" fill="#EEEEEE"/>
<path d="M107.052 146.42L87.9999 157.42L98.9999 176.473L118.052 165.473L107.052 146.42Z" fill="#EEEEEE"/>
<path d="M126.105 135.42L107.052 146.42L118.052 165.473L137.105 154.473L126.105 135.42Z" fill="#EEEEEE"/>
<path d="M96.0525 127.368L107.052 146.42L126.105 135.42L115.105 116.368L96.0525 127.368Z" fill="#EEEEEE"/>
<path d="M321.736 -53.7373L332.736 -34.6847L351.788 -45.6847L340.788 -64.7373L321.736 -53.7373Z" fill="#EEEEEE"/>
<path d="M302.683 -42.7373L313.683 -23.6847L332.736 -34.6847L321.736 -53.7373L302.683 -42.7373Z" fill="#EEEEEE"/>
<path d="M378.893 -86.7373L389.893 -67.6847L408.946 -78.6847L397.946 -97.7373L378.893 -86.7373Z" fill="#EEEEEE"/>
<path d="M438.999 -70.6321L449.999 -51.5796L469.051 -62.5796L458.051 -81.6321L438.999 -70.6321Z" fill="#EEEEEE"/>
<path d="M518.156 -65.527L507.156 -84.5796L488.104 -73.5796L499.104 -54.5271L518.156 -65.527Z" fill="#EEEEEE"/>
<path d="M337.841 -113.842L318.788 -102.842L329.788 -83.7898L348.841 -94.7898L337.841 -113.842Z" fill="#EEEEEE"/>
<path d="M319.578 74.5255L338.631 63.5255L327.631 44.473L308.578 55.473L319.578 74.5255Z" fill="#EEEEEE"/>
<path d="M300.525 85.5255L319.578 74.5255L308.578 55.473L289.525 66.473L300.525 85.5255Z" fill="#EEEEEE"/>
<path d="M319.578 74.5255L300.525 85.5255L311.525 104.578L330.578 93.5781L319.578 74.5255Z" fill="#EEEEEE"/>
<path d="M379.683 90.6306L360.631 101.631L371.631 120.683L390.683 109.683L379.683 90.6306Z" fill="#EEEEEE"/>
<path d="M390.683 109.683L371.631 120.683L382.631 139.736L401.683 128.736L390.683 109.683Z" fill="#EEEEEE"/>
<path d="M311.525 104.578L322.525 123.631L341.578 112.631L330.578 93.5781L311.525 104.578Z" fill="#EEEEEE"/>
<path d="M273.42 126.578L284.42 145.631L303.473 134.631L292.473 115.578L273.42 126.578Z" fill="#EEEEEE"/>
<path d="M262.42 107.526L243.368 118.526L254.368 137.578L273.42 126.578L262.42 107.526Z" fill="#EEEEEE"/>
<path d="M617.156 105.946L628.156 124.999L609.104 135.999L598.104 116.946L617.156 105.946Z" fill="#EEEEEE"/>
<path d="M760.156 353.629L741.104 364.629L752.104 383.682L771.156 372.682L760.156 353.629Z" fill="#EEEEEE"/>
<path d="M722.051 375.629L733.051 394.682L752.104 383.682L741.104 364.629L722.051 375.629Z" fill="#EEEEEE"/>
<path d="M711.051 356.577L730.104 345.577L719.104 326.524L700.051 337.524L711.051 356.577Z" fill="#EEEEEE"/>
<path d="M741.104 364.629L730.104 345.577L711.051 356.577L722.051 375.629L741.104 364.629Z" fill="#EEEEEE"/>
<path d="M727.156 296.472L716.156 277.419L697.104 288.419L708.104 307.472L727.156 296.472Z" fill="#EEEEEE"/>
<path d="M678.051 299.419L689.051 318.472L708.104 307.472L697.104 288.419L678.051 299.419Z" fill="#EEEEEE"/>
<path d="M678.051 299.419L658.999 310.419L669.999 329.472L689.051 318.472L678.051 299.419Z" fill="#EEEEEE"/>
<path d="M639.946 321.419L650.946 340.472L669.999 329.472L658.999 310.419L639.946 321.419Z" fill="#EEEEEE"/>
<path d="M650.946 340.472L661.946 359.524L680.999 348.524L669.999 329.472L650.946 340.472Z" fill="#EEEEEE"/>
<path d="M683.946 397.629L694.946 416.682L713.999 405.682L702.999 386.629L683.946 397.629Z" fill="#EEEEEE"/>
<path d="M672.946 378.577L683.946 397.629L702.999 386.629L691.999 367.577L672.946 378.577Z" fill="#EEEEEE"/>
<path d="M664.893 408.629L683.946 397.629L672.946 378.577L653.893 389.577L664.893 408.629Z" fill="#EEEEEE"/>
<path d="M634.841 400.577L645.841 419.629L664.893 408.629L653.893 389.577L634.841 400.577Z" fill="#EEEEEE"/>
<path d="M623.841 381.524L634.841 400.577L653.893 389.577L642.893 370.524L623.841 381.524Z" fill="#EEEEEE"/>
<path d="M686.104 269.367L705.156 258.367L694.156 239.314L675.104 250.314L686.104 269.367Z" fill="#EEEEEE"/>
<path d="M667.051 280.367L686.104 269.367L675.104 250.314L656.051 261.314L667.051 280.367Z" fill="#EEEEEE"/>
<path d="M628.946 302.367L647.999 291.367L636.999 272.314L617.946 283.314L628.946 302.367Z" fill="#EEEEEE"/>
<path d="M625.999 253.261L606.946 264.261L617.946 283.314L636.999 272.314L625.999 253.261Z" fill="#EEEEEE"/>
<path d="M595.946 245.209L606.946 264.261L625.999 253.261L614.999 234.209L595.946 245.209Z" fill="#EEEEEE"/>
<path d="M603.999 215.156L614.999 234.209L634.051 223.209L623.051 204.156L603.999 215.156Z" fill="#EEEEEE"/>
<path d="M672.156 201.209L661.156 182.156L642.104 193.156L653.104 212.209L672.156 201.209Z" fill="#EEEEEE"/>
<path d="M642.104 193.156L623.051 204.156L634.051 223.209L653.104 212.209L642.104 193.156Z" fill="#EEEEEE"/>
<path d="M609.893 313.367L628.946 302.367L617.946 283.314L598.893 294.314L609.893 313.367Z" fill="#EEEEEE"/>
<path d="M535.841 229.104L546.841 248.156L565.893 237.156L554.893 218.104L535.841 229.104Z" fill="#EEEEEE"/>
<path d="M562.946 188.051L573.946 207.104L592.999 196.104L581.999 177.051L562.946 188.051Z" fill="#EEEEEE"/>
<path d="M554.893 218.104L573.946 207.104L562.946 188.051L543.893 199.051L554.893 218.104Z" fill="#EEEEEE"/>
<path d="M546.841 248.156L557.841 267.209L576.893 256.209L565.893 237.156L546.841 248.156Z" fill="#EEEEEE"/>
<path d="M628.156 124.999L609.104 135.999L620.104 155.051L639.156 144.051L628.156 124.999Z" fill="#EEEEEE"/>
<path d="M650.156 163.104L639.156 144.051L620.104 155.051L631.104 174.104L650.156 163.104Z" fill="#EEEEEE"/>
<path d="M581.999 177.051L592.999 196.104L612.051 185.104L601.051 166.051L581.999 177.051Z" fill="#EEEEEE"/>
<path d="M579.051 127.946L559.999 138.946L570.999 157.999L590.051 146.999L579.051 127.946Z" fill="#EEEEEE"/>
<path d="M568.051 108.893L548.999 119.893L559.999 138.946L579.051 127.946L568.051 108.893Z" fill="#EEEEEE"/>
<path d="M557.051 89.8409L537.999 100.841L548.999 119.893L568.051 108.893L557.051 89.8409Z" fill="#EEEEEE"/>
<path d="M576.104 78.8408L557.051 89.8409L568.051 108.893L587.104 97.8935L576.104 78.8408Z" fill="#EEEEEE"/>
<path d="M595.156 67.8409L576.104 78.8408L587.104 97.8935L606.156 86.8935L595.156 67.8409Z" fill="#EEEEEE"/>
<path d="M540.946 149.946L551.946 168.999L570.999 157.999L559.999 138.946L540.946 149.946Z" fill="#EEEEEE"/>
<path d="M532.893 179.999L551.946 168.999L540.946 149.946L521.893 160.946L532.893 179.999Z" fill="#EEEEEE"/>
<path d="M518.946 111.841L499.893 122.841L510.893 141.893L529.946 130.893L518.946 111.841Z" fill="#EEEEEE"/>
<path d="M499.893 122.841L480.841 133.841L491.841 152.893L510.893 141.893L499.893 122.841Z" fill="#EEEEEE"/>
<path d="M480.841 133.841L461.788 144.841L472.788 163.893L491.841 152.893L480.841 133.841Z" fill="#EEEEEE"/>
<path d="M483.788 182.946L502.841 171.946L491.841 152.893L472.788 163.893L483.788 182.946Z" fill="#EEEEEE"/>
<path d="M607.736 441.629L618.736 460.682L637.788 449.682L626.788 430.629L607.736 441.629Z" fill="#EEEEEE"/>
<path d="M607.736 441.629L626.788 430.629L615.788 411.577L596.736 422.577L607.736 441.629Z" fill="#EEEEEE"/>
<path d="M574.736 384.472L585.736 403.524L604.788 392.524L593.788 373.472L574.736 384.472Z" fill="#EEEEEE"/>
<path d="M596.736 422.577L615.788 411.577L604.788 392.524L585.736 403.524L596.736 422.577Z" fill="#EEEEEE"/>
<path d="M574.736 384.472L593.788 373.472L582.788 354.419L563.736 365.419L574.736 384.472Z" fill="#EEEEEE"/>
<path d="M593.788 373.472L612.841 362.472L601.841 343.419L582.788 354.419L593.788 373.472Z" fill="#EEEEEE"/>
<path d="M601.841 343.419L612.841 362.472L631.893 351.472L620.893 332.419L601.841 343.419Z" fill="#EEEEEE"/>
<path d="M557.841 267.209L538.788 278.209L549.788 297.261L568.841 286.261L557.841 267.209Z" fill="#EEEEEE"/>
<path d="M557.841 267.209L568.841 286.261L587.893 275.261L576.893 256.209L557.841 267.209Z" fill="#EEEEEE"/>
<path d="M544.683 376.419L525.631 387.419L536.631 406.472L555.683 395.472L544.683 376.419Z" fill="#EEEEEE"/>
<path d="M528.578 436.524L539.578 455.577L558.631 444.577L547.631 425.524L528.578 436.524Z" fill="#EEEEEE"/>
<path d="M550.578 474.629L569.631 463.629L558.631 444.577L539.578 455.577L550.578 474.629Z" fill="#EEEEEE"/>
<path d="M561.578 493.682L580.631 482.682L569.631 463.629L550.578 474.629L561.578 493.682Z" fill="#EEEEEE"/>
<path d="M580.631 482.682L599.683 471.682L588.683 452.629L569.631 463.629L580.631 482.682Z" fill="#EEEEEE"/>
<path d="M523.473 515.682L542.525 504.682L531.525 485.629L512.473 496.629L523.473 515.682Z" fill="#EEEEEE"/>
<path d="M501.473 477.577L512.473 496.629L531.525 485.629L520.525 466.577L501.473 477.577Z" fill="#EEEEEE"/>
<path d="M509.526 447.524L490.473 458.524L501.473 477.577L520.525 466.577L509.526 447.524Z" fill="#EEEEEE"/>
<path d="M436.263 540.629L447.263 559.682L466.315 548.682L455.315 529.629L436.263 540.629Z" fill="#EEEEEE"/>
<path d="M455.315 529.629L444.315 510.577L425.263 521.577L436.263 540.629L455.315 529.629Z" fill="#EEEEEE"/>
<path d="M474.368 518.629L463.368 499.577L444.315 510.577L455.315 529.629L474.368 518.629Z" fill="#EEEEEE"/>
<path d="M463.368 499.577L474.368 518.629L493.42 507.629L482.42 488.577L463.368 499.577Z" fill="#EEEEEE"/>
<path d="M452.368 480.524L463.368 499.577L482.42 488.577L471.42 469.524L452.368 480.524Z" fill="#EEEEEE"/>
<path d="M430.368 442.419L441.368 461.472L460.42 450.472L449.42 431.419L430.368 442.419Z" fill="#EEEEEE"/>
<path d="M457.473 401.366L438.42 412.366L449.42 431.419L468.473 420.419L457.473 401.366Z" fill="#EEEEEE"/>
<path d="M552.736 346.367L571.788 335.367L560.788 316.314L541.736 327.314L552.736 346.367Z" fill="#EEEEEE"/>
<path d="M571.788 335.367L590.841 324.367L579.841 305.314L560.788 316.314L571.788 335.367Z" fill="#EEEEEE"/>
<path d="M514.631 368.366L533.683 357.366L522.683 338.314L503.631 349.314L514.631 368.366Z" fill="#EEEEEE"/>
<path d="M492.631 330.261L511.683 319.261L500.683 300.209L481.631 311.209L492.631 330.261Z" fill="#EEEEEE"/>
<path d="M500.683 300.209L511.683 319.261L530.736 308.261L519.736 289.209L500.683 300.209Z" fill="#EEEEEE"/>
<path d="M489.683 281.156L500.683 300.209L519.736 289.209L508.736 270.156L489.683 281.156Z" fill="#EEEEEE"/>
<path d="M478.683 262.104L497.736 251.104L486.736 232.051L467.683 243.051L478.683 262.104Z" fill="#EEEEEE"/>
<path d="M445.683 204.946L456.683 223.999L475.736 212.999L464.736 193.946L445.683 204.946Z" fill="#EEEEEE"/>
<path d="M434.683 185.893L445.683 204.946L464.736 193.946L453.736 174.893L434.683 185.893Z" fill="#EEEEEE"/>
<path d="M442.736 155.841L423.683 166.841L434.683 185.893L453.736 174.893L442.736 155.841Z" fill="#EEEEEE"/>
<path d="M366.525 199.841L347.473 210.841L358.473 229.893L377.526 218.893L366.525 199.841Z" fill="#EEEEEE"/>
<path d="M385.578 188.841L366.525 199.841L377.526 218.893L396.578 207.893L385.578 188.841Z" fill="#EEEEEE"/>
<path d="M404.631 177.841L385.578 188.841L396.578 207.893L415.631 196.893L404.631 177.841Z" fill="#EEEEEE"/>
<path d="M415.631 196.893L396.578 207.893L407.578 226.946L426.631 215.946L415.631 196.893Z" fill="#EEEEEE"/>
<path d="M418.578 245.999L429.578 265.051L448.631 254.051L437.631 234.999L418.578 245.999Z" fill="#EEEEEE"/>
<path d="M418.578 245.999L399.526 256.999L410.526 276.051L429.578 265.051L418.578 245.999Z" fill="#EEEEEE"/>
<path d="M399.526 256.999L380.473 267.999L391.473 287.051L410.526 276.051L399.526 256.999Z" fill="#EEEEEE"/>
<path d="M388.526 237.946L369.473 248.946L380.473 267.999L399.526 256.999L388.526 237.946Z" fill="#EEEEEE"/>
<path d="M350.42 259.946L361.42 278.999L380.473 267.999L369.473 248.946L350.42 259.946Z" fill="#EEEEEE"/>
<path d="M331.368 270.946L342.368 289.999L361.42 278.999L350.42 259.946L331.368 270.946Z" fill="#EEEEEE"/>
<path d="M320.368 251.893L331.368 270.946L350.42 259.946L339.42 240.893L320.368 251.893Z" fill="#EEEEEE"/>
<path d="M328.42 221.841L309.368 232.841L320.368 251.893L339.42 240.893L328.42 221.841Z" fill="#EEEEEE"/>
<path d="M440.578 284.104L459.631 273.104L448.631 254.051L429.578 265.051L440.578 284.104Z" fill="#EEEEEE"/>
<path d="M451.578 303.156L470.631 292.156L459.631 273.104L440.578 284.104L451.578 303.156Z" fill="#EEEEEE"/>
<path d="M454.525 352.261L473.578 341.261L462.578 322.209L443.526 333.209L454.525 352.261Z" fill="#EEEEEE"/>
<path d="M413.473 325.156L432.526 314.156L421.526 295.104L402.473 306.104L413.473 325.156Z" fill="#EEEEEE"/>
<path d="M424.473 344.209L443.526 333.209L432.526 314.156L413.473 325.156L424.473 344.209Z" fill="#EEEEEE"/>
<path d="M424.473 344.209L435.473 363.261L454.525 352.261L443.526 333.209L424.473 344.209Z" fill="#EEEEEE"/>
<path d="M416.42 374.261L427.42 393.314L446.473 382.314L435.473 363.261L416.42 374.261Z" fill="#EEEEEE"/>
<path d="M416.42 374.261L435.473 363.261L424.473 344.209L405.42 355.209L416.42 374.261Z" fill="#EEEEEE"/>
<path d="M282.263 273.893L293.263 292.946L312.315 281.946L301.315 262.893L282.263 273.893Z" fill="#EEEEEE"/>
<path d="M282.263 273.893L263.21 284.893L274.21 303.946L293.263 292.946L282.263 273.893Z" fill="#EEEEEE"/>
<path d="M271.263 254.841L252.21 265.841L263.21 284.893L282.263 273.893L271.263 254.841Z" fill="#EEEEEE"/>
<path d="M293.263 292.946L304.263 311.999L323.315 300.999L312.315 281.946L293.263 292.946Z" fill="#EEEEEE"/>
<path d="M315.263 331.051L334.315 320.051L323.315 300.999L304.263 311.999L315.263 331.051Z" fill="#EEEEEE"/>
<path d="M247.105 344.999L266.158 333.999L255.158 314.946L236.105 325.946L247.105 344.999Z" fill="#EEEEEE"/>
<path d="M244.158 295.893L225.105 306.893L236.105 325.946L255.158 314.946L244.158 295.893Z" fill="#EEEEEE"/>
<path d="M195.052 298.841L176 309.841L187 328.893L206.052 317.893L195.052 298.841Z" fill="#EEEEEE"/>
<path d="M198 347.946L217.052 336.946L206.052 317.893L187 328.893L198 347.946Z" fill="#EEEEEE"/>
<path d="M198 347.946L209 366.999L228.052 355.999L217.052 336.946L198 347.946Z" fill="#EEEEEE"/>
<path d="M228.052 355.999L209 366.999L220 386.051L239.052 375.051L228.052 355.999Z" fill="#EEEEEE"/>
<path d="M220 386.051L231 405.104L250.052 394.104L239.052 375.051L220 386.051Z" fill="#EEEEEE"/>
<path d="M231 405.104L242 424.156L261.052 413.156L250.052 394.104L231 405.104Z" fill="#EEEEEE"/>
<path d="M359.263 407.261L370.263 426.314L389.315 415.314L378.315 396.261L359.263 407.261Z" fill="#EEEEEE"/>
<path d="M408.368 404.314L397.368 385.261L378.315 396.261L389.315 415.314L408.368 404.314Z" fill="#EEEEEE"/>
<path d="M359.263 407.261L378.315 396.261L367.315 377.209L348.263 388.209L359.263 407.261Z" fill="#EEEEEE"/>
<path d="M356.315 358.156L337.263 369.156L348.263 388.209L367.315 377.209L356.315 358.156Z" fill="#EEEEEE"/>
<path d="M364.368 328.104L345.315 339.104L356.315 358.156L375.368 347.156L364.368 328.104Z" fill="#EEEEEE"/>
<path d="M364.368 328.104L375.368 347.156L394.42 336.156L383.42 317.104L364.368 328.104Z" fill="#EEEEEE"/>
<path d="M353.368 309.051L364.368 328.104L383.42 317.104L372.42 298.051L353.368 309.051Z" fill="#EEEEEE"/>
<path d="M386.368 366.209L375.368 347.156L356.315 358.156L367.315 377.209L386.368 366.209Z" fill="#EEEEEE"/>
<path d="M296.21 342.051L307.21 361.104L326.263 350.104L315.263 331.051L296.21 342.051Z" fill="#EEEEEE"/>
<path d="M304.263 311.999L285.21 322.999L296.21 342.051L315.263 331.051L304.263 311.999Z" fill="#EEEEEE"/>
<path d="M277.158 353.051L288.158 372.104L307.21 361.104L296.21 342.051L277.158 353.051Z" fill="#EEEEEE"/>
<path d="M269.105 383.104L288.158 372.104L277.158 353.051L258.105 364.051L269.105 383.104Z" fill="#EEEEEE"/>
<path d="M258.105 364.051L277.158 353.051L266.158 333.999L247.105 344.999L258.105 364.051Z" fill="#EEEEEE"/>
<path d="M340.21 418.261L321.158 429.261L332.158 448.314L351.21 437.314L340.21 418.261Z" fill="#EEEEEE"/>
<path d="M310.158 410.209L321.158 429.261L340.21 418.261L329.21 399.209L310.158 410.209Z" fill="#EEEEEE"/>
<path d="M299.158 391.156L310.158 410.209L329.21 399.209L318.21 380.156L299.158 391.156Z" fill="#EEEEEE"/>
<path d="M376.158 524.524L387.158 543.577L406.21 532.577L395.21 513.524L376.158 524.524Z" fill="#EEEEEE"/>
<path d="M403.263 483.472L384.21 494.472L395.21 513.524L414.263 502.524L403.263 483.472Z" fill="#EEEEEE"/>
<path d="M365.158 505.472L376.158 524.524L395.21 513.524L384.21 494.472L365.158 505.472Z" fill="#EEEEEE"/>
<path d="M387.158 543.577L398.158 562.629L417.21 551.629L406.21 532.577L387.158 543.577Z" fill="#EEEEEE"/>
<path d="M403.263 483.472L414.263 502.524L433.315 491.524L422.315 472.472L403.263 483.472Z" fill="#EEEEEE"/>
<path d="M400.315 434.366L381.263 445.366L392.263 464.419L411.315 453.419L400.315 434.366Z" fill="#EEEEEE"/>
<path d="M343.158 467.366L362.21 456.366L351.21 437.314L332.158 448.314L343.158 467.366Z" fill="#EEEEEE"/>
<path d="M362.21 456.366L343.158 467.366L354.158 486.419L373.21 475.419L362.21 456.366Z" fill="#EEEEEE"/>
<path d="M360.052 584.629L371.052 603.682L390.105 592.682L379.105 573.629L360.052 584.629Z" fill="#EEEEEE"/>
<path d="M341 595.629L352 614.682L371.052 603.682L360.052 584.629L341 595.629Z" fill="#EEEEEE"/>
<path d="M330 576.577L341 595.629L360.052 584.629L349.052 565.577L330 576.577Z" fill="#EEEEEE"/>
<path d="M338.052 546.524L319 557.524L330 576.577L349.052 565.577L338.052 546.524Z" fill="#EEEEEE"/>
<path d="M368.105 554.577L387.158 543.577L376.158 524.524L357.105 535.524L368.105 554.577Z" fill="#EEEEEE"/>
<path d="M316.052 508.419L327.052 527.472L346.105 516.472L335.105 497.419L316.052 508.419Z" fill="#EEEEEE"/>
<path d="M324.105 478.366L305.052 489.366L316.052 508.419L335.105 497.419L324.105 478.366Z" fill="#EEEEEE"/>
<path d="M305.052 489.366L286 500.366L297 519.419L316.052 508.419L305.052 489.366Z" fill="#EEEEEE"/>
<path d="M283.052 451.261L264 462.261L275 481.314L294.052 470.314L283.052 451.261Z" fill="#EEEEEE"/>
<path d="M302.105 440.261L283.052 451.261L294.052 470.314L313.105 459.314L302.105 440.261Z" fill="#EEEEEE"/>
<path d="M272.052 432.209L283.052 451.261L302.105 440.261L291.105 421.209L272.052 432.209Z" fill="#EEEEEE"/>
<path d="M497.736 251.104L508.736 270.156L527.788 259.156L516.788 240.104L497.736 251.104Z" fill="#EEEEEE"/>
<path d="M478.683 262.104L489.683 281.156L508.736 270.156L497.736 251.104L478.683 262.104Z" fill="#EEEEEE"/>
<path d="M554.893 218.104L565.893 237.156L584.946 226.156L573.946 207.104L554.893 218.104Z" fill="#EEEEEE"/>
<path d="M614.999 234.209L625.999 253.261L645.051 242.261L634.051 223.209L614.999 234.209Z" fill="#EEEEEE"/>
<path d="M694.156 239.314L683.156 220.261L664.104 231.261L675.104 250.314L694.156 239.314Z" fill="#EEEEEE"/>
<path d="M513.841 190.999L494.788 201.999L505.788 221.051L524.841 210.051L513.841 190.999Z" fill="#EEEEEE"/>
<path d="M495.578 379.366L514.631 368.366L503.631 349.314L484.578 360.314L495.578 379.366Z" fill="#EEEEEE"/>
<path d="M476.525 390.366L495.578 379.366L484.578 360.314L465.525 371.314L476.525 390.366Z" fill="#EEEEEE"/>
<path d="M495.578 379.366L476.525 390.366L487.526 409.419L506.578 398.419L495.578 379.366Z" fill="#EEEEEE"/>
<path d="M555.683 395.472L536.631 406.472L547.631 425.524L566.683 414.524L555.683 395.472Z" fill="#EEEEEE"/>
<path d="M566.683 414.524L547.631 425.524L558.631 444.577L577.683 433.577L566.683 414.524Z" fill="#EEEEEE"/>
<path d="M487.526 409.419L498.526 428.472L517.578 417.472L506.578 398.419L487.526 409.419Z" fill="#EEEEEE"/>
<path d="M449.42 431.419L460.42 450.472L479.473 439.472L468.473 420.419L449.42 431.419Z" fill="#EEEEEE"/>
<path d="M438.42 412.366L419.368 423.366L430.368 442.419L449.42 431.419L438.42 412.366Z" fill="#EEEEEE"/>
<path d="M1036.31 -136.054L1047.31 -117.001L1028.26 -106.001L1017.26 -125.054L1036.31 -136.054Z" fill="#EEEEEE"/>
<path d="M1179.31 111.629L1160.26 122.629L1171.26 141.682L1190.31 130.682L1179.31 111.629Z" fill="#EEEEEE"/>
<path d="M1141.21 133.629L1152.21 152.682L1171.26 141.682L1160.26 122.629L1141.21 133.629Z" fill="#EEEEEE"/>
<path d="M1130.21 114.577L1149.26 103.577L1138.26 84.5242L1119.21 95.5242L1130.21 114.577Z" fill="#EEEEEE"/>
<path d="M1160.26 122.629L1149.26 103.577L1130.21 114.577L1141.21 133.629L1160.26 122.629Z" fill="#EEEEEE"/>
<path d="M1146.31 54.4717L1135.31 35.4191L1116.26 46.4191L1127.26 65.4717L1146.31 54.4717Z" fill="#EEEEEE"/>
<path d="M1097.21 57.4191L1108.21 76.4717L1127.26 65.4717L1116.26 46.4191L1097.21 57.4191Z" fill="#EEEEEE"/>
<path d="M1097.21 57.4191L1078.15 68.4191L1089.15 87.4717L1108.21 76.4717L1097.21 57.4191Z" fill="#EEEEEE"/>
<path d="M1059.1 79.4191L1070.1 98.4717L1089.15 87.4717L1078.15 68.4191L1059.1 79.4191Z" fill="#EEEEEE"/>
<path d="M1070.1 98.4717L1081.1 117.524L1100.15 106.524L1089.15 87.4717L1070.1 98.4717Z" fill="#EEEEEE"/>
<path d="M1103.1 155.629L1114.1 174.682L1133.15 163.682L1122.15 144.629L1103.1 155.629Z" fill="#EEEEEE"/>
<path d="M1092.1 136.577L1103.1 155.629L1122.15 144.629L1111.15 125.577L1092.1 136.577Z" fill="#EEEEEE"/>
<path d="M1084.05 166.629L1103.1 155.629L1092.1 136.577L1073.05 147.577L1084.05 166.629Z" fill="#EEEEEE"/>
<path d="M1054 158.577L1065 177.629L1084.05 166.629L1073.05 147.577L1054 158.577Z" fill="#EEEEEE"/>
<path d="M1043 139.524L1054 158.577L1073.05 147.577L1062.05 128.524L1043 139.524Z" fill="#EEEEEE"/>
<path d="M1105.26 27.3665L1124.31 16.3665L1113.31 -2.68602L1094.26 8.31398L1105.26 27.3665Z" fill="#EEEEEE"/>
<path d="M1086.21 38.3665L1105.26 27.3665L1094.26 8.31398L1075.21 19.314L1086.21 38.3665Z" fill="#EEEEEE"/>
<path d="M1048.1 60.3665L1067.15 49.3665L1056.15 30.314L1037.1 41.314L1048.1 60.3665Z" fill="#EEEEEE"/>
<path d="M1045.15 11.2614L1026.1 22.2614L1037.1 41.314L1056.15 30.314L1045.15 11.2614Z" fill="#EEEEEE"/>
<path d="M1015.1 3.20885L1026.1 22.2614L1045.15 11.2614L1034.15 -7.79114L1015.1 3.20885Z" fill="#EEEEEE"/>
<path d="M1023.15 -26.8437L1034.15 -7.79114L1053.21 -18.7911L1042.21 -37.8437L1023.15 -26.8437Z" fill="#EEEEEE"/>
<path d="M1091.31 -40.7911L1080.31 -59.8437L1061.26 -48.8437L1072.26 -29.7911L1091.31 -40.7911Z" fill="#EEEEEE"/>
<path d="M1061.26 -48.8437L1042.21 -37.8437L1053.21 -18.7911L1072.26 -29.7911L1061.26 -48.8437Z" fill="#EEEEEE"/>
<path d="M1029.05 71.3665L1048.1 60.3665L1037.1 41.314L1018.05 52.314L1029.05 71.3665Z" fill="#EEEEEE"/>
<path d="M954.997 -12.8963L965.997 6.15629L985.05 -4.84371L974.05 -23.8963L954.997 -12.8963Z" fill="#EEEEEE"/>
<path d="M982.102 -53.9488L993.102 -34.8963L1012.15 -45.8963L1001.15 -64.9488L982.102 -53.9488Z" fill="#EEEEEE"/>
<path d="M974.05 -23.8963L993.102 -34.8963L982.102 -53.9488L963.05 -42.9488L974.05 -23.8963Z" fill="#EEEEEE"/>
<path d="M965.997 6.15629L976.997 25.2088L996.05 14.2088L985.05 -4.84371L965.997 6.15629Z" fill="#EEEEEE"/>
<path d="M1047.31 -117.001L1028.26 -106.001L1039.26 -86.9488L1058.31 -97.9488L1047.31 -117.001Z" fill="#EEEEEE"/>
<path d="M1069.31 -78.8963L1058.31 -97.9488L1039.26 -86.9488L1050.26 -67.8963L1069.31 -78.8963Z" fill="#EEEEEE"/>
<path d="M1001.15 -64.9488L1012.15 -45.8963L1031.21 -56.8963L1020.21 -75.9488L1001.15 -64.9488Z" fill="#EEEEEE"/>
<path d="M998.207 -114.054L979.155 -103.054L990.155 -84.0014L1009.21 -95.0014L998.207 -114.054Z" fill="#EEEEEE"/>
<path d="M987.207 -133.106L968.155 -122.106L979.155 -103.054L998.207 -114.054L987.207 -133.106Z" fill="#EEEEEE"/>
<path d="M976.207 -152.159L957.155 -141.159L968.155 -122.106L987.207 -133.106L976.207 -152.159Z" fill="#EEEEEE"/>
<path d="M995.26 -163.159L976.207 -152.159L987.207 -133.106L1006.26 -144.106L995.26 -163.159Z" fill="#EEEEEE"/>
<path d="M1014.31 -174.159L995.26 -163.159L1006.26 -144.106L1025.31 -155.106L1014.31 -174.159Z" fill="#EEEEEE"/>
<path d="M960.102 -92.0539L971.102 -73.0014L990.155 -84.0014L979.155 -103.054L960.102 -92.0539Z" fill="#EEEEEE"/>
<path d="M952.05 -62.0014L971.102 -73.0014L960.102 -92.0539L941.05 -81.0539L952.05 -62.0014Z" fill="#EEEEEE"/>
<path d="M938.102 -130.159L919.05 -119.159L930.05 -100.106L949.102 -111.106L938.102 -130.159Z" fill="#EEEEEE"/>
<path d="M919.05 -119.159L899.997 -108.159L910.997 -89.1065L930.05 -100.106L919.05 -119.159Z" fill="#EEEEEE"/>
<path d="M899.997 -108.159L880.945 -97.1591L891.945 -78.1065L910.997 -89.1065L899.997 -108.159Z" fill="#EEEEEE"/>
<path d="M902.945 -59.0539L921.997 -70.0539L910.997 -89.1065L891.945 -78.1065L902.945 -59.0539Z" fill="#EEEEEE"/>
<path d="M1026.89 199.629L1037.89 218.682L1056.94 207.682L1045.94 188.629L1026.89 199.629Z" fill="#EEEEEE"/>
<path d="M1026.89 199.629L1045.94 188.629L1034.94 169.577L1015.89 180.577L1026.89 199.629Z" fill="#EEEEEE"/>
<path d="M993.892 142.472L1004.89 161.524L1023.94 150.524L1012.94 131.472L993.892 142.472Z" fill="#EEEEEE"/>
<path d="M1015.89 180.577L1034.94 169.577L1023.94 150.524L1004.89 161.524L1015.89 180.577Z" fill="#EEEEEE"/>
<path d="M993.892 142.472L1012.94 131.472L1001.94 112.419L982.892 123.419L993.892 142.472Z" fill="#EEEEEE"/>
<path d="M1012.94 131.472L1032 120.472L1021 101.419L1001.94 112.419L1012.94 131.472Z" fill="#EEEEEE"/>
<path d="M1021 101.419L1032 120.472L1051.05 109.472L1040.05 90.4191L1021 101.419Z" fill="#EEEEEE"/>
<path d="M976.997 25.2088L957.945 36.2088L968.945 55.2614L987.997 44.2614L976.997 25.2088Z" fill="#EEEEEE"/>
<path d="M976.997 25.2088L987.997 44.2614L1007.05 33.2614L996.05 14.2088L976.997 25.2088Z" fill="#EEEEEE"/>
<path d="M963.839 134.419L944.787 145.419L955.787 164.472L974.839 153.472L963.839 134.419Z" fill="#EEEEEE"/>
<path d="M947.734 194.524L958.734 213.577L977.787 202.577L966.787 183.524L947.734 194.524Z" fill="#EEEEEE"/>
<path d="M969.734 232.629L988.787 221.629L977.787 202.577L958.734 213.577L969.734 232.629Z" fill="#EEEEEE"/>
<path d="M980.734 251.682L999.787 240.682L988.787 221.629L969.734 232.629L980.734 251.682Z" fill="#EEEEEE"/>
<path d="M999.787 240.682L1018.84 229.682L1007.84 210.629L988.787 221.629L999.787 240.682Z" fill="#EEEEEE"/>
<path d="M942.629 273.682L961.682 262.682L950.682 243.629L931.629 254.629L942.629 273.682Z" fill="#EEEEEE"/>
<path d="M920.629 235.577L931.629 254.629L950.682 243.629L939.682 224.577L920.629 235.577Z" fill="#EEEEEE"/>
<path d="M928.682 205.524L909.629 216.524L920.629 235.577L939.682 224.577L928.682 205.524Z" fill="#EEEEEE"/>
<path d="M855.419 298.629L866.419 317.682L885.472 306.682L874.472 287.629L855.419 298.629Z" fill="#EEEEEE"/>
<path d="M874.472 287.629L863.472 268.577L844.419 279.577L855.419 298.629L874.472 287.629Z" fill="#EEEEEE"/>
<path d="M893.524 276.629L882.524 257.577L863.472 268.577L874.472 287.629L893.524 276.629Z" fill="#EEEEEE"/>
<path d="M882.524 257.577L893.524 276.629L912.577 265.629L901.577 246.577L882.524 257.577Z" fill="#EEEEEE"/>
<path d="M871.524 238.524L882.524 257.577L901.577 246.577L890.577 227.524L871.524 238.524Z" fill="#EEEEEE"/>
<path d="M849.524 200.419L860.524 219.472L879.577 208.472L868.577 189.419L849.524 200.419Z" fill="#EEEEEE"/>
<path d="M876.629 159.367L857.577 170.367L868.577 189.419L887.629 178.419L876.629 159.367Z" fill="#EEEEEE"/>
<path d="M971.892 104.367L990.945 93.3665L979.945 74.314L960.892 85.314L971.892 104.367Z" fill="#EEEEEE"/>
<path d="M990.945 93.3665L1010 82.3665L998.997 63.314L979.945 74.314L990.945 93.3665Z" fill="#EEEEEE"/>
<path d="M933.787 126.367L952.839 115.367L941.839 96.314L922.787 107.314L933.787 126.367Z" fill="#EEEEEE"/>
<path d="M911.787 88.2614L930.839 77.2614L919.839 58.2088L900.787 69.2088L911.787 88.2614Z" fill="#EEEEEE"/>
<path d="M919.839 58.2088L930.839 77.2614L949.892 66.2614L938.892 47.2088L919.839 58.2088Z" fill="#EEEEEE"/>
<path d="M908.839 39.1563L919.839 58.2088L938.892 47.2088L927.892 28.1563L908.839 39.1563Z" fill="#EEEEEE"/>
<path d="M897.839 20.1037L916.892 9.10373L905.892 -9.94884L886.839 1.05116L897.839 20.1037Z" fill="#EEEEEE"/>
<path d="M864.839 -37.054L875.839 -18.0014L894.892 -29.0014L883.892 -48.054L864.839 -37.054Z" fill="#EEEEEE"/>
<path d="M853.839 -56.1065L864.839 -37.054L883.892 -48.054L872.892 -67.1065L853.839 -56.1065Z" fill="#EEEEEE"/>
<path d="M861.892 -86.1591L842.839 -75.1591L853.839 -56.1065L872.892 -67.1065L861.892 -86.1591Z" fill="#EEEEEE"/>
<path d="M785.682 -42.1591L766.629 -31.1591L777.629 -12.1065L796.682 -23.1065L785.682 -42.1591Z" fill="#EEEEEE"/>
<path d="M804.734 -53.1591L785.682 -42.1591L796.682 -23.1065L815.734 -34.1065L804.734 -53.1591Z" fill="#EEEEEE"/>
<path d="M823.787 -64.1591L804.734 -53.1591L815.734 -34.1065L834.787 -45.1065L823.787 -64.1591Z" fill="#EEEEEE"/>
<path d="M834.787 -45.1065L815.734 -34.1065L826.734 -15.054L845.787 -26.054L834.787 -45.1065Z" fill="#EEEEEE"/>
<path d="M837.734 3.99859L848.734 23.0512L867.787 12.0512L856.787 -7.00141L837.734 3.99859Z" fill="#EEEEEE"/>
<path d="M837.734 3.99859L818.682 14.9986L829.682 34.0511L848.734 23.0512L837.734 3.99859Z" fill="#EEEEEE"/>
<path d="M818.682 14.9986L799.629 25.9986L810.629 45.0511L829.682 34.0511L818.682 14.9986Z" fill="#EEEEEE"/>
<path d="M807.682 -4.05397L788.629 6.94603L799.629 25.9986L818.682 14.9986L807.682 -4.05397Z" fill="#EEEEEE"/>
<path d="M769.577 17.946L780.577 36.9986L799.629 25.9986L788.629 6.94603L769.577 17.946Z" fill="#EEEEEE"/>
<path d="M750.524 28.946L761.524 47.9986L780.577 36.9986L769.577 17.946L750.524 28.946Z" fill="#EEEEEE"/>
<path d="M739.524 9.89347L750.524 28.946L769.577 17.946L758.577 -1.10653L739.524 9.89347Z" fill="#EEEEEE"/>
<path d="M747.577 -20.1591L728.524 -9.15909L739.524 9.89347L758.577 -1.10653L747.577 -20.1591Z" fill="#EEEEEE"/>
<path d="M859.734 42.1037L878.787 31.1037L867.787 12.0512L848.734 23.0512L859.734 42.1037Z" fill="#EEEEEE"/>
<path d="M870.734 61.1563L889.787 50.1563L878.787 31.1037L859.734 42.1037L870.734 61.1563Z" fill="#EEEEEE"/>
<path d="M873.682 110.261L892.734 99.2614L881.734 80.2088L862.682 91.2088L873.682 110.261Z" fill="#EEEEEE"/>
<path d="M832.629 83.1563L851.682 72.1563L840.682 53.1037L821.629 64.1037L832.629 83.1563Z" fill="#EEEEEE"/>
<path d="M843.629 102.209L862.682 91.2088L851.682 72.1563L832.629 83.1563L843.629 102.209Z" fill="#EEEEEE"/>
<path d="M843.629 102.209L854.629 121.261L873.682 110.261L862.682 91.2088L843.629 102.209Z" fill="#EEEEEE"/>
<path d="M835.577 132.261L846.577 151.314L865.629 140.314L854.629 121.261L835.577 132.261Z" fill="#EEEEEE"/>
<path d="M835.577 132.261L854.629 121.261L843.629 102.209L824.577 113.209L835.577 132.261Z" fill="#EEEEEE"/>
<path d="M701.419 31.8935L712.419 50.946L731.472 39.946L720.472 20.8935L701.419 31.8935Z" fill="#EEEEEE"/>
<path d="M701.419 31.8935L682.366 42.8935L693.366 61.946L712.419 50.946L701.419 31.8935Z" fill="#EEEEEE"/>
<path d="M690.419 12.8409L671.366 23.8409L682.366 42.8935L701.419 31.8935L690.419 12.8409Z" fill="#EEEEEE"/>
<path d="M712.419 50.946L723.419 69.9986L742.472 58.9986L731.472 39.946L712.419 50.946Z" fill="#EEEEEE"/>
<path d="M734.419 89.0511L753.472 78.0511L742.472 58.9986L723.419 69.9986L734.419 89.0511Z" fill="#EEEEEE"/>
<path d="M666.261 102.999L685.314 91.9986L674.314 72.946L655.261 83.946L666.261 102.999Z" fill="#EEEEEE"/>
<path d="M663.314 53.8935L644.261 64.8935L655.261 83.946L674.314 72.946L663.314 53.8935Z" fill="#EEEEEE"/>
<path d="M614.209 56.8409L595.156 67.8409L606.156 86.8935L625.209 75.8935L614.209 56.8409Z" fill="#EEEEEE"/>
<path d="M617.156 105.946L636.209 94.946L625.209 75.8935L606.156 86.8935L617.156 105.946Z" fill="#EEEEEE"/>
<path d="M617.156 105.946L628.156 124.999L647.209 113.999L636.209 94.946L617.156 105.946Z" fill="#EEEEEE"/>
<path d="M647.209 113.999L628.156 124.999L639.156 144.051L658.209 133.051L647.209 113.999Z" fill="#EEEEEE"/>
<path d="M639.156 144.051L650.156 163.104L669.209 152.104L658.209 133.051L639.156 144.051Z" fill="#EEEEEE"/>
<path d="M650.156 163.104L661.156 182.156L680.209 171.156L669.209 152.104L650.156 163.104Z" fill="#EEEEEE"/>
<path d="M778.419 165.261L789.419 184.314L808.472 173.314L797.472 154.261L778.419 165.261Z" fill="#EEEEEE"/>
<path d="M827.524 162.314L816.524 143.261L797.472 154.261L808.472 173.314L827.524 162.314Z" fill="#EEEEEE"/>
<path d="M778.419 165.261L797.472 154.261L786.472 135.209L767.419 146.209L778.419 165.261Z" fill="#EEEEEE"/>
<path d="M775.472 116.156L756.419 127.156L767.419 146.209L786.472 135.209L775.472 116.156Z" fill="#EEEEEE"/>
<path d="M783.524 86.1037L764.472 97.1037L775.472 116.156L794.524 105.156L783.524 86.1037Z" fill="#EEEEEE"/>
<path d="M783.524 86.1037L794.524 105.156L813.577 94.1563L802.577 75.1037L783.524 86.1037Z" fill="#EEEEEE"/>
<path d="M772.524 67.0511L783.524 86.1037L802.577 75.1037L791.577 56.0511L772.524 67.0511Z" fill="#EEEEEE"/>
<path d="M805.524 124.209L794.524 105.156L775.472 116.156L786.472 135.209L805.524 124.209Z" fill="#EEEEEE"/>
<path d="M715.366 100.051L726.366 119.104L745.419 108.104L734.419 89.0511L715.366 100.051Z" fill="#EEEEEE"/>
<path d="M723.419 69.9986L704.366 80.9986L715.366 100.051L734.419 89.0511L723.419 69.9986Z" fill="#EEEEEE"/>
<path d="M696.314 111.051L707.314 130.104L726.366 119.104L715.366 100.051L696.314 111.051Z" fill="#EEEEEE"/>
<path d="M688.261 141.104L707.314 130.104L696.314 111.051L677.261 122.051L688.261 141.104Z" fill="#EEEEEE"/>
<path d="M677.261 122.051L696.314 111.051L685.314 91.9986L666.261 102.999L677.261 122.051Z" fill="#EEEEEE"/>
<path d="M759.366 176.261L740.314 187.261L751.314 206.314L770.366 195.314L759.366 176.261Z" fill="#EEEEEE"/>
<path d="M729.314 168.209L740.314 187.261L759.366 176.261L748.366 157.209L729.314 168.209Z" fill="#EEEEEE"/>
<path d="M718.314 149.156L729.314 168.209L748.366 157.209L737.366 138.156L718.314 149.156Z" fill="#EEEEEE"/>
<path d="M795.314 282.524L806.314 301.577L825.366 290.577L814.366 271.524L795.314 282.524Z" fill="#EEEEEE"/>
<path d="M822.419 241.472L803.366 252.472L814.366 271.524L833.419 260.524L822.419 241.472Z" fill="#EEEEEE"/>
<path d="M784.314 263.472L795.314 282.524L814.366 271.524L803.366 252.472L784.314 263.472Z" fill="#EEEEEE"/>
<path d="M806.314 301.577L817.314 320.629L836.366 309.629L825.366 290.577L806.314 301.577Z" fill="#EEEEEE"/>
<path d="M822.419 241.472L833.419 260.524L852.472 249.524L841.472 230.472L822.419 241.472Z" fill="#EEEEEE"/>
<path d="M819.472 192.367L800.419 203.367L811.419 222.419L830.472 211.419L819.472 192.367Z" fill="#EEEEEE"/>
<path d="M762.314 225.367L781.366 214.367L770.366 195.314L751.314 206.314L762.314 225.367Z" fill="#EEEEEE"/>
<path d="M781.366 214.367L762.314 225.367L773.314 244.419L792.366 233.419L781.366 214.367Z" fill="#EEEEEE"/>
<path d="M779.209 342.629L790.209 361.682L809.261 350.682L798.261 331.629L779.209 342.629Z" fill="#EEEEEE"/>
<path d="M760.156 353.629L771.156 372.682L790.209 361.682L779.209 342.629L760.156 353.629Z" fill="#EEEEEE"/>
<path d="M749.156 334.577L760.156 353.629L779.209 342.629L768.209 323.577L749.156 334.577Z" fill="#EEEEEE"/>
<path d="M757.209 304.524L738.156 315.524L749.156 334.577L768.209 323.577L757.209 304.524Z" fill="#EEEEEE"/>
<path d="M787.261 312.577L806.314 301.577L795.314 282.524L776.261 293.524L787.261 312.577Z" fill="#EEEEEE"/>
<path d="M735.209 266.419L746.209 285.472L765.261 274.472L754.261 255.419L735.209 266.419Z" fill="#EEEEEE"/>
<path d="M743.261 236.366L724.209 247.366L735.209 266.419L754.261 255.419L743.261 236.366Z" fill="#EEEEEE"/>
<path d="M724.209 247.366L705.156 258.367L716.156 277.419L735.209 266.419L724.209 247.366Z" fill="#EEEEEE"/>
<path d="M702.209 209.261L683.156 220.261L694.156 239.314L713.209 228.314L702.209 209.261Z" fill="#EEEEEE"/>
<path d="M721.261 198.261L702.209 209.261L713.209 228.314L732.261 217.314L721.261 198.261Z" fill="#EEEEEE"/>
<path d="M691.209 190.209L702.209 209.261L721.261 198.261L710.261 179.209L691.209 190.209Z" fill="#EEEEEE"/>
<path d="M916.892 9.10373L927.892 28.1563L946.945 17.1563L935.945 -1.89627L916.892 9.10373Z" fill="#EEEEEE"/>
<path d="M897.839 20.1037L908.839 39.1563L927.892 28.1563L916.892 9.10373L897.839 20.1037Z" fill="#EEEEEE"/>
<path d="M974.05 -23.8963L985.05 -4.84371L1004.1 -15.8437L993.102 -34.8963L974.05 -23.8963Z" fill="#EEEEEE"/>
<path d="M1034.15 -7.79114L1045.15 11.2614L1064.21 0.261423L1053.21 -18.7911L1034.15 -7.79114Z" fill="#EEEEEE"/>
<path d="M1113.31 -2.68602L1102.31 -21.7386L1083.26 -10.7386L1094.26 8.31398L1113.31 -2.68602Z" fill="#EEEEEE"/>
<path d="M932.997 -51.0014L913.945 -40.0014L924.945 -20.9488L943.997 -31.9488L932.997 -51.0014Z" fill="#EEEEEE"/>
<path d="M914.734 137.367L933.787 126.367L922.787 107.314L903.734 118.314L914.734 137.367Z" fill="#EEEEEE"/>
<path d="M895.682 148.367L914.734 137.367L903.734 118.314L884.682 129.314L895.682 148.367Z" fill="#EEEEEE"/>
<path d="M914.734 137.367L895.682 148.367L906.682 167.419L925.734 156.419L914.734 137.367Z" fill="#EEEEEE"/>
<path d="M974.839 153.472L955.787 164.472L966.787 183.524L985.839 172.524L974.839 153.472Z" fill="#EEEEEE"/>
<path d="M985.839 172.524L966.787 183.524L977.787 202.577L996.839 191.577L985.839 172.524Z" fill="#EEEEEE"/>
<path d="M906.682 167.419L917.682 186.472L936.734 175.472L925.734 156.419L906.682 167.419Z" fill="#EEEEEE"/>
<path d="M868.577 189.419L879.577 208.472L898.629 197.472L887.629 178.419L868.577 189.419Z" fill="#EEEEEE"/>
<path d="M857.577 170.367L838.524 181.367L849.524 200.419L868.577 189.419L857.577 170.367Z" fill="#EEEEEE"/>
</svg>
