<svg width="30" height="15" viewBox="0 0 30 15" fill="none" xmlns="http://www.w3.org/2000/svg">
<path d="M1 6.5C0.447715 6.5 0 6.94772 0 7.5C0 8.05228 0.447715 8.5 1 8.5V6.5ZM29.7071 8.20711C30.0976 7.81658 30.0976 7.18342 29.7071 6.79289L23.3431 0.428932C22.9526 0.0384078 22.3195 0.0384078 21.9289 0.428932C21.5384 0.819457 21.5384 1.45262 21.9289 1.84315L27.5858 7.5L21.9289 13.1569C21.5384 13.5474 21.5384 14.1805 21.9289 14.5711C22.3195 14.9616 22.9526 14.9616 23.3431 14.5711L29.7071 8.20711ZM1 8.5H29V6.5H1V8.5Z" fill="#FAFAFA"/>
</svg>
