<svg width="38" height="24" viewBox="0 0 38 24" fill="none" xmlns="http://www.w3.org/2000/svg">
<path d="M0.421975 10.0943V2.83943H2.32086V5.96743H2.21537C2.21537 5.2139 2.30768 4.59181 2.49229 4.10114C2.68569 3.60171 2.96701 3.22933 3.33624 2.984C3.70547 2.7299 4.15821 2.60286 4.69447 2.60286H4.79997C5.34502 2.60286 5.79776 2.7299 6.1582 2.984C6.52743 3.22933 6.80435 3.60171 6.98896 4.10114C7.18237 4.59181 7.27907 5.2139 7.27907 5.96743H6.72523C6.72523 5.2139 6.81753 4.59181 7.00215 4.10114C7.19555 3.60171 7.47687 3.22933 7.8461 2.984C8.21533 2.7299 8.66807 2.60286 9.20433 2.60286H9.30982C9.85487 2.60286 10.312 2.7299 10.6812 2.984C11.0593 3.22933 11.345 3.60171 11.5384 4.10114C11.7406 4.59181 11.8417 5.2139 11.8417 5.96743V10.0943H9.44169V5.90171C9.44169 5.56876 9.34938 5.29276 9.16477 5.07371C8.98895 4.8459 8.734 4.732 8.39994 4.732C8.06588 4.732 7.80214 4.8459 7.60874 5.07371C7.42412 5.29276 7.33182 5.57752 7.33182 5.928V10.0943H4.93183V5.90171C4.93183 5.56876 4.83953 5.29276 4.65491 5.07371C4.47909 4.8459 4.22415 4.732 3.89008 4.732C3.55602 4.732 3.29228 4.8459 3.09888 5.07371C2.91426 5.29276 2.82196 5.57752 2.82196 5.928V10.0943H0.421975Z" fill="#1C1C1C"/>
<path d="M17.8585 10.0943V7.96514H17.4629V5.69143C17.4629 5.35848 17.3838 5.11314 17.2256 4.95543C17.0761 4.78895 16.8256 4.70571 16.4739 4.70571C16.3069 4.70571 16.0607 4.7101 15.7355 4.71886C15.4102 4.72762 15.0673 4.74076 14.7069 4.75829C14.3465 4.77581 14.0168 4.79333 13.7179 4.81086V2.81314C13.9289 2.79562 14.1794 2.77809 14.4695 2.76057C14.7596 2.74305 15.0585 2.7299 15.3662 2.72114C15.6827 2.71238 15.9728 2.708 16.2366 2.708C16.9838 2.708 17.6168 2.81752 18.1354 3.03657C18.6629 3.25562 19.0629 3.58419 19.3354 4.02229C19.6168 4.46038 19.7574 5.01676 19.7574 5.69143V10.0943H17.8585ZM15.5508 10.2783C15.041 10.2783 14.5882 10.1863 14.1926 10.0023C13.797 9.81829 13.4849 9.55543 13.2564 9.21371C13.0366 8.86324 12.9267 8.44705 12.9267 7.96514C12.9267 7.4219 13.0717 6.98381 13.3619 6.65086C13.652 6.30914 14.052 6.05943 14.5618 5.90171C15.0717 5.744 15.6563 5.66514 16.3157 5.66514H17.7267V6.90057H16.3157C15.9904 6.90057 15.7399 6.98381 15.564 7.15029C15.3882 7.308 15.3003 7.52267 15.3003 7.79429C15.3003 8.05714 15.3882 8.27181 15.564 8.43829C15.7399 8.596 15.9904 8.67486 16.3157 8.67486C16.5267 8.67486 16.7113 8.63981 16.8695 8.56971C17.0366 8.49086 17.1728 8.35943 17.2783 8.17543C17.3838 7.99143 17.4453 7.73733 17.4629 7.41314L18.0168 7.93886C17.9728 8.43829 17.8497 8.86324 17.6475 9.21371C17.4541 9.55543 17.1816 9.81829 16.83 10.0023C16.4871 10.1863 16.0607 10.2783 15.5508 10.2783Z" fill="#1C1C1C"/>
<path d="M24.8291 10.1994C24.0379 10.1994 23.405 10.103 22.9303 9.91029C22.4643 9.71752 22.1259 9.39771 21.9149 8.95086C21.7039 8.504 21.5984 7.89943 21.5984 7.13714L21.6116 0.946857H23.827L23.8138 7.20286C23.8138 7.52705 23.8973 7.77676 24.0643 7.952C24.2401 8.11848 24.4907 8.20171 24.816 8.20171H25.8182V10.1994H24.8291ZM20.5435 4.57429V2.83943H25.8182V4.57429H20.5435Z" fill="#1C1C1C"/>
<path d="M27.1045 10.0943V0.5H29.5045V5.96743H29.188C29.188 5.23143 29.2803 4.61371 29.4649 4.11429C29.6495 3.61486 29.9176 3.2381 30.2693 2.984C30.6297 2.7299 31.0737 2.60286 31.6011 2.60286H31.7066C32.4978 2.60286 33.1 2.88762 33.5132 3.45714C33.9352 4.02667 34.1462 4.86343 34.1462 5.96743V10.0943H31.7462V5.87543C31.7462 5.54248 31.6451 5.27086 31.4429 5.06057C31.2407 4.84152 30.9726 4.732 30.6385 4.732C30.3045 4.732 30.0319 4.84152 29.8209 5.06057C29.61 5.27086 29.5045 5.55124 29.5045 5.90171V10.0943H27.1045Z" fill="#1C1C1C"/>
<path d="M35.4154 10.0943V7.492H38V10.0943H35.4154Z" fill="#1C1C1C"/>
<path d="M3.41536 23.4737C2.90547 23.4737 2.43954 23.3817 2.01757 23.1977C1.60438 23.0137 1.24395 22.7596 0.936257 22.4354C0.637358 22.1025 0.404393 21.7126 0.237361 21.2657C0.0791203 20.8189 0 20.3326 0 19.8069V19.4914C0 18.9657 0.0747247 18.4794 0.224174 18.0326C0.382415 17.577 0.606589 17.1827 0.896697 16.8497C1.1868 16.508 1.53845 16.2451 1.95163 16.0611C2.36482 15.8684 2.82635 15.772 3.33624 15.772C3.92525 15.772 4.42634 15.9034 4.83953 16.1663C5.2615 16.4204 5.58238 16.7928 5.80216 17.2834C6.03073 17.7741 6.1538 18.3699 6.17138 19.0709L5.61754 18.6634V13.6429H8.01752V23.2371H6.11864V20.2931H6.38237C6.36479 20.9415 6.23292 21.5067 5.98677 21.9886C5.74062 22.4617 5.39776 22.8297 4.95821 23.0926C4.52744 23.3467 4.01316 23.4737 3.41536 23.4737ZM4.06151 21.5023C4.35162 21.5023 4.61535 21.4366 4.85271 21.3051C5.09886 21.1737 5.29667 20.981 5.44612 20.7269C5.59556 20.4728 5.67029 20.1661 5.67029 19.8069V19.36C5.67029 19.0095 5.59117 18.716 5.43293 18.4794C5.28348 18.2429 5.08568 18.0632 4.83953 17.9406C4.60216 17.8091 4.34283 17.7434 4.06151 17.7434C3.74503 17.7434 3.45932 17.8267 3.20437 17.9931C2.95822 18.1509 2.76042 18.3743 2.61097 18.6634C2.47031 18.9438 2.39998 19.2724 2.39998 19.6491C2.39998 20.0259 2.47031 20.3545 2.61097 20.6349C2.76042 20.9065 2.95822 21.1211 3.20437 21.2789C3.45932 21.4278 3.74503 21.5023 4.06151 21.5023Z" fill="#1C1C1C"/>
<path d="M13.1736 23.5C12.5583 23.5 12.0132 23.3949 11.5385 23.1846C11.0638 22.9743 10.6638 22.6895 10.3385 22.3303C10.0132 21.971 9.76267 21.568 9.58685 21.1211C9.41982 20.6743 9.3363 20.2143 9.3363 19.7411V19.4783C9.3363 18.9876 9.41982 18.5189 9.58685 18.072C9.76267 17.6164 10.0088 17.2133 10.3253 16.8629C10.6506 16.5124 11.0462 16.2364 11.5121 16.0349C11.978 15.8246 12.5055 15.7194 13.0945 15.7194C13.8769 15.7194 14.5407 15.8947 15.0857 16.2451C15.6308 16.5956 16.0483 17.06 16.3384 17.6383C16.6286 18.2078 16.7736 18.8299 16.7736 19.5046V20.2669H10.3385V18.9789H15.389L14.5582 19.5571C14.5582 19.1453 14.5011 18.7992 14.3868 18.5189C14.2813 18.2297 14.1187 18.0107 13.8989 17.8617C13.6879 17.7128 13.4198 17.6383 13.0945 17.6383C12.778 17.6383 12.5011 17.7128 12.2638 17.8617C12.0352 18.0019 11.8594 18.221 11.7363 18.5189C11.6132 18.808 11.5517 19.176 11.5517 19.6229C11.5517 20.0259 11.6088 20.3764 11.7231 20.6743C11.8374 20.9634 12.0132 21.1869 12.2506 21.3446C12.4879 21.5023 12.7956 21.5811 13.1736 21.5811C13.5077 21.5811 13.7802 21.5242 13.9912 21.4103C14.211 21.2964 14.3648 21.143 14.4527 20.9503H16.6417C16.5362 21.441 16.3253 21.879 16.0088 22.2646C15.7011 22.6501 15.3055 22.9524 14.822 23.1714C14.3473 23.3905 13.7978 23.5 13.1736 23.5Z" fill="#1C1C1C"/>
<path d="M19.3328 23.2371L17.2493 15.9823H19.702L21.6404 23.2371H19.3328ZM20.0976 23.2371V21.2394H22.4316V23.2371H20.0976ZM20.9415 23.2371L22.5899 15.9823H24.8844L23.091 23.2371H20.9415Z" fill="#1C1C1C"/>
</svg>
